<?xml version="1.0" encoding="utf-8"?>
<!-- Generator: Adobe Illustrator 16.0.3, SVG Export Plug-In . SVG Version: 6.00 Build 0)  -->
<!DOCTYPE svg PUBLIC "-//W3C//DTD SVG 1.1//EN" "http://www.w3.org/Graphics/SVG/1.1/DTD/svg11.dtd">
<svg version="1.1" id="Capa_1" xmlns="http://www.w3.org/2000/svg" xmlns:xlink="http://www.w3.org/1999/xlink" x="0px" y="0px"
	 width="331.982px" height="72.146px" viewBox="0 3.18 331.982 72.146" enable-background="new 0 3.18 331.982 72.146"
	 xml:space="preserve">
<g>
	<g>
		<g>
			<path fill="#FFFFFF" d="M22.946,67.163c-10.263,0-18.211-11.216-18.211-24.444h36.402C41.14,55.987,33.233,67.163,22.946,67.163"
				/>
			<path fill="#1D1D1B" d="M26.958,12.213l0.3,0.005c0,0-0.185-1.333-2.572-1.172h-0.558l-0.265,0.74l1.631-0.114
				C25.495,11.672,26.613,11.571,26.958,12.213"/>
			<path fill="#1D1D1B" d="M24.338,13.105l0.374-0.399l0.071,0.009l-0.068,0.169c0,0.262,0.158,0.478,0.407,0.575h0.396
				c0.249-0.098,0.388-0.322,0.388-0.575l-0.041-0.166c0.214,0.052,0.472,0.166,0.588,0.4l0.504,0.027c0,0-0.291-1.263-2.559-0.917
				l-0.575,0.866L24.338,13.105"/>
			<path fill="#1D1D1B" d="M19.165,13.105l0.52-0.063c0.113-0.238,0.368-0.335,0.577-0.376l-0.047,0.155
				c0,0.277,0.141,0.482,0.382,0.58h0.394c0.251-0.098,0.419-0.305,0.419-0.58l-0.041-0.066l0.099-0.034l0.325,0.321l0.521-0.01
				l-0.56-0.843C19.477,11.783,19.165,13.105,19.165,13.105"/>
			<path fill="#1D1D1B" d="M20.542,11.648l1.679,0.11l-0.19-0.711h-0.438c-2.55-0.161-2.771,1.13-2.771,1.13l0.301-0.022
				C19.456,11.515,20.542,11.648,20.542,11.648"/>
			<polyline fill="#1D1D1B" points="25.401,29.235 25.295,29.181 25.401,29.235 			"/>
			<path fill="#1D1D1B" d="M24.984,70.407c1.747-0.199,6.995-2.434,8.744-3.934c1.995,0.168,2.768-1.372,4.214-2.13l-0.402-0.268
				c0.836-0.492,1.256-1.186,2.173-1.895c-0.147-0.136-0.405-0.212-0.708-0.225c1.348-0.465,0.428-1.006,1.728-1.959l-0.229-0.162
				c0.866-0.563,0.815-1.361,1.589-2.192c-0.162-0.136-0.444-0.202-0.774-0.202c1.481-0.478,1.348-1.497,2.276-2.467
				c-0.066,0-0.301-0.023-0.611-0.061c0.801-0.663,0.561-1.533,1.206-2.5c-0.227-0.128-0.533-0.172-0.895-0.112
				c1.325-0.585,1.144-1.801,1.864-2.975c-0.13-0.114-0.328-0.158-0.574-0.158c1.053-1.038-0.271-0.668,0.544-2.813
				c-0.232-0.13-0.55-0.073-0.848,0.06c1.078-0.883,0.86-1.96,1.46-3.301c-0.714-0.123-2.319,0.997-2.777,1.909v-0.155
				c0.153-0.301,0.353-0.678,0.939-1.033c1.604-1.158,0.992-2.201,1.439-3.756c-0.773-0.059-2.168,1.188-2.487,2.124l-0.065-0.285
				c0.222-0.371,0.271-0.925,1.144-1.376c1.377-0.753,0.963-2.128,1.407-3.641c-0.213-0.047-0.504,0.042-0.784,0.185
				c0.305-0.973-0.324-1.661-0.204-2.847c-0.778,0-1.722,1.416-1.818,2.369l-0.24-0.379c0.121-0.377,0.183-0.806,0.838-1.292
				c1.341-1.568,0.213-2.462,0.377-4.013l-0.432,0.127c-0.064-0.786-0.627-1.283-0.716-2.271c-0.793,0.072-1.502,1.535-1.397,2.489
				l-0.359-0.383c0.093-0.363,0.155-0.855,0.711-1.343c0.735-1.522,0-2.267-0.107-3.774c-0.242,0-0.479,0.15-0.714,0.34
				c-0.008-0.979-0.554-1.452-0.874-2.565c-0.49,0.078-0.961,0.776-1.154,1.489c0.003-0.317,0.054-0.685,0.194-1.068
				c0.034-1.984-0.787-2.168-1.429-3.719c-0.266,0.161-0.47,0.645-0.617,1.15c-0.224-1.333-0.78-1.672-1.484-2.918
				c-0.462,0.404-0.677,1.695-0.516,2.61c-0.112-0.317-0.183-0.664-0.051-1.234c-0.173-1.591-0.966-2.082-1.719-3.033
				c0.371-0.037,0.753-0.143,1.234-0.473c0,0-0.687,0.05-1.058-0.13c-0.4-0.175-0.659-0.621-1.041-0.792
				c-0.444-0.214-0.828,0.057-1.546-0.403l3.913-0.816l-3.854-0.747c0,0,0.21-0.238,0.657-0.29c0.351,0.025,0.828-0.034,1.208-0.391
				c0.154-0.207,0.695-0.792,1.77-0.68c-0.898-0.529-1.337-0.342-2.129-0.07c-0.554,0.337-0.808,0.06-1.685,0.073l3.219-2.079
				l-3.866,0.81c0.609-0.94,1.209-0.497,1.571-1.647c0.111-0.268,0.555-0.764,1.232-1.071c-0.713-0.216-1.462,0.264-2.243,1.071
				c-0.288,0.116-0.95,0.401-1.325,0.467l2.181-3.244c0,0-2.251,1.577-3.284,2.185v-0.05c0.146-0.882,0.733-0.759,0.877-1.696
				c-0.066-0.305,0-1.127,0.705-1.824c-0.884,0.208-1.302,0.836-1.636,1.824c-0.173,0.363-0.696,0.532-1.08,0.983L27.435,4
				l-2.209,3.241c0,0-0.17-0.133-0.127-0.483c0.3-0.672,0.303-0.982,0.256-1.306c-0.231-0.501-0.479-1.19,0-2.045
				c-1.249,0.755-0.669,1.799-1.011,2.577c-0.149,0.327-0.379,0.713-0.569,1.011l-0.59-3.814l-0.773,3.811
				c-0.479-0.618-0.193-0.841-0.439-1.462c-0.36-0.719-0.982-0.585-1-2.162c-0.263,0.574-0.56,0.924,0.12,2.492
				c0.105,0.168-0.102,0.874-0.037,1.379L18.9,3.999l0.786,3.833c-0.481-0.045-0.609-0.865-1.01-1.208
				c-0.538-0.417-1.327-0.298-1.729-1.6c-0.176,0.869,0.136,1.388,0.948,2.124c0.308,0.386,0.478,1.048,0.589,1.449l-3.273-2.185
				l2.228,3.244c-0.749,0.106-0.779-0.883-2.2-0.835c-0.94,0-1.449-0.833-1.384-0.682c0.445,1.675,1.642,1.179,2.079,1.863
				l0.709,0.81l-3.808-0.81l3.276,2.098c-0.575,0.313-1.284-0.452-1.972-0.07c-1.251,0.625-1.858,0.031-1.965,0.031
				c0.768,0.97,1.262,0.742,2.032,0.802c0.557-0.027,0.965,0.275,1.646,0.583l-3.88,0.771l3.835,0.719
				c-0.458,0.433-1.204,0.118-1.726,0.583c-1.139,1.307-2.307,0.594-1.905,0.809c1.002,0.691,1.52,0.498,2.108,0.294
				c-0.375,0.304-0.711,0.573-0.983,0.944c-0.062-0.3-0.161-0.547-0.33-0.68c-0.708,1.075-1.649,1.181-1.948,2.555
				c-0.064-0.371-0.203-0.676-0.38-0.854c-0.658,1.18-1.381,1.37-1.648,2.653c-0.089-0.346-0.235-0.608-0.418-0.724
				c-0.629,1.506-1.677,1.823-1.374,3.808c0.173,0.486,0.173,0.836,0.126,1.118c-0.097-0.783-0.473-1.57-1.014-1.669
				c-0.479,0.836-0.965,1.53-1.067,2.429l-0.557-0.258C4.575,27.433,3.395,27.94,4.5,29.702c0.602,0.565,0.517,1.008,0.589,1.406
				l-0.193,0.226c0.08-0.915-0.737-2.333-1.502-2.41c-0.1,1.105-0.631,1.606-0.552,2.513l-0.536-0.161
				c0.164,1.526-0.948,2.142,0.457,3.669c0.673,0.473,0.707,0.909,0.834,1.251l-0.24,0.377c-0.09-0.943-1.05-2.256-1.798-2.256
				c0.161,1.675-0.679,1.616-0.173,2.765c-0.289-0.175-0.561-0.244-0.791-0.231c0.425,1.504-0.055,2.731,1.396,3.59
				c0.854,0.429,0.904,0.979,1.143,1.324l-0.084,0.291c-0.308-0.933-1.695-2.143-2.454-2.093c0.412,1.31,0.154,2.527,0.924,3.308
				c-0.43-0.253-0.9-0.393-1.31-0.314c0.703,1.505,0.305,2.299,1.688,3.556c-0.438-0.225-0.878-0.285-1.18-0.152
				c0.379,1.022,0.259,1.793,0.635,2.52c-0.222,0-0.423,0.066-0.578,0.133c0.753,1.215,0.504,2.187,1.694,2.935
				c-0.287-0.021-0.551,0-0.703,0.119c0.54,0.877,0.584,1.638,1.006,2.326l-0.467,0.193c0.937,0.898,0.961,1.857,2.009,2.406
				c-0.289,0-0.536,0.073-0.684,0.194c0.729,0.752,0.999,1.466,1.684,2.029c-0.316,0.014-0.578,0.117-0.722,0.28
				c1.082,0.776,1.158,1.631,2.325,2.049c-0.32,0-0.569,0.085-0.733,0.199c1.353,1.092,0.472,1.482,1.739,1.975l-0.233,0.183
				c1.44,0.779,1.591,2.547,4.737,2.523c1.499,1.633,5.562,3.561,8.559,3.937L24.984,70.407 M44.281,47.171
				c-0.36,0.981,0.03,1.594-0.859,2.304c-0.604,0.12-0.554,0.295-0.734,0.492c0.109-0.372,0.238-0.725,0.454-0.967
				c-0.255,0.152-0.476,0.345-0.619,0.607c-0.146-0.133-0.383-0.1-0.705-0.728c-0.434-0.829-0.138-1.152-0.25-1.997
				c0.427,0.712,1.098,1.421,1.181,1.918C42.964,48.067,43.921,47.08,44.281,47.171 M42.666,47.684
				c0.152-0.253,0.396-0.513,0.855-0.788c-0.371,0.321-0.677,0.699-0.832,1.104L42.666,47.684z M44.708,43.82
				c-0.475,1.048-0.129,1.541-1.115,2.428c-0.638,0.263-0.611,0.424-0.795,0.634c0.136-0.371,0.298-0.726,0.547-1.021
				c-0.282,0.212-0.541,0.446-0.714,0.736c-0.134-0.087-0.396-0.008-0.674-0.537c-0.388-0.699-0.042-1.107-0.097-1.867
				c0.385,0.589,1.029,1.105,1.075,1.576C43.216,45.023,44.348,43.82,44.708,43.82 M42.964,42.947
				c0.153-0.772,1.081-2.079,1.448-2.131c-0.288,1.09,0.157,1.522-0.71,2.498c-0.607,0.342-0.554,0.508-0.688,0.732
				c0.048-0.391,0.167-0.758,0.366-1.092c-0.237,0.258-0.452,0.514-0.582,0.805c-0.154-0.055-0.42,0.061-0.797-0.424
				c-0.491-0.63-0.228-1.051-0.404-1.774C42.083,42.064,42.844,42.491,42.964,42.947 M41.82,40.662
				c0.384,0.44,0.632,0.575,0.778,0.972c-0.219-0.224-0.49-0.444-0.763-0.637L41.82,40.662z M44.412,37.607
				c-0.259,1.056,0.168,1.504-0.704,2.416c-0.604,0.299-0.529,0.477-0.694,0.676c0.064-0.377,0.183-0.737,0.366-1.01
				c-0.232,0.207-0.445,0.445-0.582,0.749c-0.154-0.091-0.42,0.009-0.804-0.477c-0.519-0.645-0.235-1.021-0.433-1.768
				c0.514,0.53,1.282,0.976,1.402,1.408C43.118,38.863,44.043,37.626,44.412,37.607 M42.804,37.341
				c0.014-0.73,0.717-2.079,1.093-2.156c-0.089,1.047,0.449,1.426-0.243,2.441c-0.559,0.398-0.447,0.533-0.592,0.759
				c0-0.36,0.056-0.737,0.201-1.044c-0.229,0.266-0.374,0.491-0.459,0.817c-0.173-0.073-0.399,0.097-0.874-0.371
				c-0.66-0.529-0.456-0.953-0.793-1.638C41.76,36.613,42.598,36.917,42.804,37.341 M40.588,51.525l0.144-0.559l0.029,0.11
				c0.404,1.271,0.741,1.339,0.625,2.215l-0.068,0.114C41.41,52.811,40.953,52.118,40.588,51.525 M39.038,57.897
				c-0.033-0.415-0.248-0.854-0.46-1.27l0.212-0.398C38.934,57.118,39.132,57.362,39.038,57.897 M40.324,57.618
				c-0.536,0.134-1.022,0.4-1.333,0.703l0.047-0.124C39.375,58.069,39.622,57.656,40.324,57.618 M37.861,55.801
				c0,0-3.245,0.53-7.216-2.105c0.31-0.388,0.475-1.471,0.31-2.097c-0.102-0.513-0.102-0.074-0.249,0.234
				c-0.374,0.92-0.659,1.034-1.064,1.345c-1.189-1.199-1.339-1.209-2.868-2.092c-1.089-0.581-1.172-0.972-1.789-1.352
				c-1.039,0.493-2.696,1.462-3.514,0.877c-0.691-0.346,0.791-0.737,1.393-1.665c0.507-0.699,1.13-0.905,1.988-0.712
				c1.619,0.352,2.437,0.938,4.861,1.984c2.941,0.215,5.135,1.107,8.134,1.75c0.501,0.151,1.246,0.212,1.588,0.245
				C39.038,53.406,38.66,54.254,37.861,55.801 M24.902,52.586c0.896,0.993,1.688,1.182,2.236,2.373
				c-0.179,0.354-0.525,0.44-0.88,0.231c-1.329-1.495-2.559-1.711-2.063-2.405c-0.251-0.036-0.495,0.312-0.433,0.562
				c0.231,1.046,1.435,1.457,1.756,2.369c-0.158,0.73-1.577,0.088-2.25-1.772l-0.034-0.076c-0.261,0.522-0.494,0.716,0.464,1.849
				c0.213,0.409,0.35,0.888-0.374,0.791c0.142,0.12-0.345-0.043-0.127,0h0.127l-0.14-0.069c0.334-1.854-1.358-1.477-1.293-1.477
				c0.249-0.657-0.703-1.312-1.659-0.891c0.146-0.487-0.876-1.259-2.274-0.724c-0.21-0.479-1.45-0.997-2.658,0.492
				c-2.123,0.198-5.609,2.069-7.712,1.122l-1.373-3.527c2.464-0.237,8.02-0.617,10-1.451c1.547-1.005,4.451-1.508,5.13-1.134
				c-0.048,0.533-1.293,1.534-0.649,2.06c1.079,1.035,2.823,0.543,4.017-0.148c1.217,1.247,3.204,1.415,3.968,3.104l-0.228,0.538
				c-0.42,0.289-0.455,0.289-0.929-0.385c-1.181-1.571-2.299-1.22-2.486-2.293C24.623,51.862,24.902,52.33,24.902,52.586
				 M19.208,55.775c-0.433,0.191,0.191-0.239,0.337-0.354l0.19-0.232c0.376-0.352,0.878-0.799,1.226-0.103
				c0.198,0.446-1.277,1.266-1.506,1.348c-0.25,0.07-0.291,0.07-0.458-0.146C18.854,56.064,18.97,55.849,19.208,55.775
				 M17.926,55.646c-0.266,0.068-0.456,0.104-0.6-0.11c-0.108-0.294,0.334-0.772,0.509-0.969l0.345-0.221l0.261-0.252
				c0.556-0.074,0.496,0,0.602,0.252C19.159,54.583,18.182,55.625,17.926,55.646 M21.47,55.884c0,0,0.583-0.642,0.844,0.24
				c0.099,0.357-0.543,0.755-1.125,0.914C20.854,56.879,20.17,56.9,21.47,55.884 M16.457,54.659
				c-0.229,0.092-0.603-0.313-0.398-0.404l0.238-0.463c0.396-0.142,0.651-0.332,0.788-0.142
				C17.203,53.883,16.661,54.583,16.457,54.659 M7.104,56.171L6.892,56.58c0.045-0.136,0.097-0.345,0.131-0.563L7.104,56.171z
				 M6.682,57.849c-0.195-0.202-0.482-0.388-0.822-0.528c0.305,0.09,0.563,0.215,0.774,0.326L6.682,57.849z M4.575,53.031
				l-0.047-0.077c-0.12-0.89,0.183-0.945,0.574-2.168l0.136,0.485C4.896,51.817,4.479,52.48,4.575,53.031 M4.766,35.485L4.16,35.786
				c0.156-0.158,0.369-0.266,0.666-0.512L4.766,35.485z M4.93,42.947h17.068v5.021c-0.742-0.161-2.094-0.166-3.255,0
				c-3.136,0.574-2.09,2.109-12.916,2.261C4.852,46.975,4.93,42.947,4.93,42.947 M15.515,18.108
				c0.146-0.188,0.338-0.188,0.463-0.855c0.43-1.355,1.17-1.185,2.11-1.821c0.311,0.415-0.821,1.918-1.538,2.378
				c0.44-0.07,1.074,0.493,1.713,0.721c-0.744,0.114-1.058,0.507-1.806,0.276c-0.57-0.203-0.521-0.463-0.648-0.588
				c0.25-0.208,0.418-0.502,0.606-0.802C16.162,17.703,15.854,17.929,15.515,18.108 M28.569,17.672
				c-0.288,0-0.577-0.086-0.869-0.212c0.413-0.104,0.833-0.286,1.173-0.488c0.729,0.128,1.354,0.488,1.404,1.131
				c-0.614-0.185-0.742,0.22-1.668,0.377c-0.837,0.168-1.288-0.3-2.047-0.47c-0.226-0.161-0.305-0.34-0.305-0.456
				c0.374,0.069,0.758,0.069,1.144,0.004l-0.02,0.107C27.773,17.813,28.177,17.777,28.569,17.672 M25.832,16.579
				c0.391,0.044,0.771-0.075,1.125-0.25c-0.26,0.056-0.554,0.056-0.824,0.025c0.52-0.328,0.881-0.75,1.579-0.728
				c0.965,0,0.965,0.556,1.534,0.272C29.313,16.402,26.535,17.649,25.832,16.579 M24.485,16.402c0.415,0.139,0.876,0.916,1.416,1.45
				c-0.717-0.225-1.102,0.035-1.755-0.533c-0.447-0.391-0.385-0.635-0.447-0.816c0.293-0.102,0.495-0.28,0.731-0.529
				c-0.303,0.185-0.655,0.268-1,0.314c0.198-0.13,0.343-0.066,0.642-0.648c0.867-0.835,1.324-0.38,2.354-0.6
				C26.381,15.432,25.207,16.279,24.485,16.402 M22.256,16.601c0.439,0.026,0.98,0.717,1.584,1.115
				c-0.737-0.05-1.064,0.25-1.755-0.15c-0.554-0.3-0.49-0.548-0.614-0.7c0.287-0.181,0.479-0.402,0.671-0.684
				c-0.267,0.249-0.598,0.397-0.94,0.502c0.181-0.181,0.342-0.143,0.556-0.774c0.757-0.973,1.106-0.587,2.084-1.045
				C23.881,15.245,22.946,16.329,22.256,16.601 M20.711,17.962c-0.739,0-1.067,0.363-1.783,0c-0.555-0.245-0.496-0.501-0.616-0.612
				c0.261-0.173,0.479-0.463,0.625-0.747c-0.259,0.264-0.564,0.459-0.92,0.601c0.176-0.184,0.357-0.168,0.537-0.818
				c0.732-1.062,1.245-0.744,2.194-1.274c0.031,0.35-0.982,1.544-1.673,1.877C19.527,17.02,20.112,17.586,20.711,17.962
				 M33.06,21.528h0.28l-0.217,0.06L33.06,21.528z M39.363,30.22l0.46,0.28l-0.4-0.133L39.363,30.22z M30.354,49.309
				c-1.677-0.329-3.901-2.229-6.409-2.092v-4.271h17.007c0.011,0.566-0.292,5.114-1.201,8.203
				C36.325,51.102,33.124,49.212,30.354,49.309 M41.041,35.299c0.277,0.23,0.521,0.381,0.698,0.542l-0.637-0.322L41.041,35.299z
				 M43.034,32.054c-0.069,1.042,0.477,1.44-0.23,2.429c-0.543,0.341-0.441,0.514-0.569,0.704c0-0.362,0.026-0.704,0.17-1.029
				c-0.203,0.243-0.36,0.496-0.449,0.786c-0.156-0.031-0.388,0.097-0.885-0.358c-0.672-0.58-0.44-0.971-0.771-1.691
				c0.604,0.48,1.443,0.844,1.656,1.259C41.99,33.416,42.666,32.124,43.034,32.054 M41.369,31.961
				c-0.144-0.734,0.292-2.089,0.65-2.225c0.146,1.045,0.747,1.37,0.24,2.421c-0.46,0.427-0.346,0.558-0.417,0.783
				c-0.07-0.358-0.105-0.713-0.024-1.059c-0.159,0.275-0.271,0.558-0.281,0.862c-0.22-0.029-0.4,0.138-0.972-0.256
				c-0.778-0.474-0.638-0.919-1.108-1.577C40.175,31.332,41.071,31.561,41.369,31.961 M40.548,26.729
				c0.113,1.072,0.734,1.379,0.213,2.43c-0.485,0.387-0.362,0.53-0.422,0.761c-0.076-0.355-0.105-0.708-0.039-1.048
				c-0.145,0.255-0.269,0.518-0.281,0.825c-0.178-0.03-0.398,0.105-0.956-0.308c-0.751-0.479-0.634-0.905-1.09-1.568
				c0.687,0.4,1.604,0.678,1.897,1.089C39.752,28.166,40.185,26.822,40.548,26.729 M39.128,24.518
				c0.331,1.025,0.973,1.284,0.69,2.377c-0.396,0.465-0.26,0.599-0.292,0.82c-0.133-0.355-0.237-0.69-0.219-1.034
				c-0.115,0.278-0.175,0.566-0.115,0.861c-0.201-0.012-0.377,0.173-1-0.162c-0.858-0.421-0.829-0.868-1.404-1.455
				c0.767,0.333,1.721,0.483,2.08,0.839C38.615,26.052,38.796,24.661,39.128,24.518 M38.377,26.151
				c-0.13-0.172-0.305-0.292-0.533-0.397l0.509,0.298L38.377,26.151z M37.148,21.59c0.459,1.023,0.825,0.918,0.794,2.232
				c-0.236,0.695-0.099,0.755-0.062,1.036c-0.191-0.34-0.34-0.708-0.387-1.084c-0.036,0.325-0.036,0.686,0.061,1.019
				c-0.161,0.047-0.273,0.28-0.857,0.12c-0.79-0.194-0.839-0.69-1.436-1.168c0.729,0.128,1.549-0.02,1.92,0.285
				C36.842,23.353,36.896,21.88,37.148,21.59 M35.407,22.122c-0.365-0.609-0.475-2.055-0.253-2.34
				c0.57,0.943,0.934,0.745,1.027,2.019c-0.175,0.685-0.024,0.773,0.034,1.031c-0.222-0.323-0.417-0.646-0.491-1.031
				c0,0.368,0.043,0.685,0.168,1.001c-0.168,0.052-0.263,0.305-0.849,0.243c-0.821-0.053-0.934-0.56-1.575-0.924
				C34.204,22.122,35.042,21.88,35.407,22.122 M32.652,17.567c0.611,0.916,1.252,0.846,1.361,2.126
				c-0.158,0.654,0,0.711,0.065,0.956c-0.245-0.302-0.427-0.595-0.54-0.956c0.02,0.335,0.06,0.654,0.199,0.956
				c-0.176,0.054-0.248,0.316-0.888,0.278c-0.827,0-0.929-0.477-1.628-0.818c0.779-0.027,1.609-0.298,2.012-0.092
				C32.762,19.415,32.443,17.887,32.652,17.567 M32.213,16.827l-0.079,0.398l-0.391-0.444L32.213,16.827z M31.972,17.742
				c-0.107,0.742,0.128,0.716,0.222,1.024L32,18.712c-0.258-0.282-0.505-0.604-0.606-0.792c0.121,0.563,0.121,0.763,0.348,1.036
				c-0.087,0.115-0.227,0.215-0.589,0.235c-1,0.081-1.181-0.151-1.583-0.373c0.674-0.285,0.985-0.64,1.651-0.433l-0.068-0.203
				l0.039,0.023l-0.039-0.023c-0.083-0.217-0.275-0.479-0.564-0.729c-0.311-0.527-0.512-1.126-0.427-1.318
				C30.934,16.887,31.656,16.579,31.972,17.742 M31.328,15.974h-0.833l-0.288-0.279C30.654,15.792,31.153,15.91,31.328,15.974
				 M16.653,15.284c0.732-0.333,0.925-0.566,0.925-0.566l-2.366-0.609l2.426-0.502c0,0-0.06-0.126-1.477-0.576
				c-0.274-0.089-0.047-0.367-1.226-0.606c0.426-0.083,0.295,0.117,1.105,0.24c0.546,0.008,0.975,0.107,1.766-0.065
				c0,0-1.443-1.115-2.393-1.62c0,0,1.577,0.419,2.826,0.722c0-0.133-0.998-0.891-1.652-1.691l-0.359-0.464
				c0.687,0.268,0.687,0.465,1.044,0.686c0.426,0.158,1.23,0.614,1.52,0.579c-0.709-0.999-1.694-2.431-1.694-2.431l2.471,1.687
				c-0.09-0.645-0.555-1.147-0.597-1.381c-0.313-1.063-0.203-0.966-0.439-1.368c0.674,1.016,0.925,1.557,1.936,2.167l-0.428-3.075
				l1.484,2.708c0.091-0.378-0.023-1.132-0.053-1.397c0.144-1.396,0.159-0.575-0.018-1.616c0.162,0.587,0.162,0.485,0.247,1.203
				c0.274,0.588,0.473,1.043,0.805,1.591l0.61-2.872l0.405,2.893c0.322-0.588,0.282-0.932,0.586-1.387
				c0.455-0.776,0.607-1.412,0.607-1.412c-0.227,1.186-0.198,0.789-0.314,1.412c0.03,0.616-0.023,1.466,0.161,1.571l1.778-2.56
				l-0.709,3c0.203-0.064,0.935-0.991,1.586-1.481l0.53-0.685c-0.399,0.52-0.53,0.864-0.751,1.275
				c-0.29,0.721-0.221,0.487-0.54,1.484l2.537-1.747l-1.732,2.492c0,0,0.145,0.06,1.277-0.57c0.682-0.167,1.225-0.445,1.582-0.693
				c-0.836,0.744-1.212,0.693-2.301,2.136l2.85-0.592l-2.488,1.499c0.129,0.155,1.136-0.138,1.868,0
				c0.649,0.041,0.649,0.052,1.282-0.065c-0.739,0.263-0.953,0.115-1.771,0.431c-0.34,0.198-1.06,0.47-1.152,0.635l2.876,0.535
				c0,0-2.827,0.642-3.309,0.829l-0.506-0.02l-0.37,0.033c0.119-0.2,0.163-0.408,0.139-0.625c-0.959,0.243-1.855-0.024-2.612,0.165
				c0.091-0.225,0.091-0.432,0.034-0.549c-1.189,0.532-2.188,0.272-3.156,1.061c0.023-0.228-0.031-0.511-0.154-0.788
				c-1.016,0.561-1.914,0.212-2.631,0.842c0.027-0.21,0.027-0.382-0.039-0.513c-1.084,0.408-1.916,0.555-2.712,1.342
				c-0.188-0.033-0.427-0.065-0.655-0.076l-0.07-0.115l-0.102,0.11l-0.508,0.017C15.655,15.604,16.215,15.526,16.653,15.284
				 M13.267,18.683c0.319-1.126,0.941-0.988,1.67-1.711c0.188,0.321-0.382,1.697-0.914,2.168c0.438-0.103,1.217,0.291,1.979,0.445
				c-0.725,0.199-0.896,0.608-1.739,0.494c-0.619-0.064-0.677-0.337-0.835-0.4c0.19-0.267,0.269-0.552,0.32-0.864
				c-0.13,0.313-0.4,0.555-0.665,0.792C13.179,19.382,13.349,19.374,13.267,18.683 M14.817,18.84l-0.097,0.046l0.026-0.046H14.817z
				 M11.476,20.182c0.124-1.242,0.722-1.178,1.339-2.079c0.208,0.308-0.12,1.811-0.578,2.399c0.41-0.221,1.229,0.068,1.972,0.115
				c-0.66,0.308-0.779,0.783-1.6,0.802c-0.624,0.043-0.693-0.227-0.855-0.28c0.128-0.281,0.167-0.611,0.198-0.943
				c-0.113,0.35-0.305,0.662-0.515,0.943C11.476,20.895,11.647,20.825,11.476,20.182 M10.974,21.203l-0.146,0.463l-0.031,0.046
				L10.974,21.203z M9.391,21.88c0.129-1.293,0.47-1.18,1.04-2.099c0.223,0.287,0.125,1.756-0.254,2.387
				c0.377-0.248,1.175,0,1.911-0.023c-0.639,0.386-0.736,0.869-1.531,0.921c-0.621,0.06-0.695-0.175-0.856-0.212
				c0.12-0.323,0.161-0.635,0.161-0.974c-0.068,0.356-0.245,0.672-0.475,0.974C9.432,22.588,9.579,22.532,9.391,21.88 M8.514,21.762
				c0.233,0.272,0.264,1.786-0.065,2.461c0.34-0.278,1.167-0.165,1.872-0.278c-0.585,0.467-0.665,0.968-1.405,1.144
				c-0.57,0.15-0.694-0.083-0.851-0.116c0.084-0.315,0.113-0.646,0.075-0.996c-0.056,0.348-0.203,0.744-0.384,1.061
				c0.021-0.275,0.167-0.345-0.066-0.979C7.671,22.742,8.047,22.802,8.514,21.762 M7.275,26.218l0.367-0.237l-0.379,0.303
				L7.275,26.218z M6.498,24.721c0.346,0.138,0.527,1.523,0.247,2.207c0.342-0.345,1.257-0.52,2.046-0.846
				c-0.578,0.588-0.531,1.021-1.351,1.42c-0.654,0.322-0.806,0.147-0.985,0.173c0.032-0.28-0.033-0.573-0.128-0.854
				c0.023,0.32-0.083,0.679-0.223,1.013c-0.015-0.22,0.135-0.332-0.276-0.792C5.519,25.979,6.2,25.704,6.498,24.721 M4.896,29.264
				c-0.512-1.041,0.089-1.359,0.205-2.388c0.348,0.102,0.804,1.405,0.669,2.121c0.29-0.364,1.188-0.667,1.858-1.094
				c-0.44,0.659-0.314,1.094-1.079,1.604c-0.547,0.392-0.745,0.23-0.93,0.299c-0.013-0.299-0.12-0.572-0.269-0.818
				c0.068,0.326,0.037,0.682-0.037,1.022C5.25,29.773,5.385,29.655,4.896,29.264 M6.455,30.204l-0.105,0.268
				c-0.289,0.089-0.578,0.202-0.839,0.351C5.75,30.591,6.007,30.488,6.455,30.204 M3.843,29.825c0.362,0.098,0.778,1.45,0.657,2.179
				c0.288-0.379,1.175-0.63,1.867-1.002c-0.452,0.623-0.329,1.053-1.095,1.53c-0.563,0.36-0.744,0.208-0.935,0.268
				c-0.011-0.31-0.133-0.607-0.257-0.859c0.079,0.331,0.011,0.662-0.054,1.021c-0.051-0.215,0.054-0.358-0.403-0.776
				C3.112,31.152,3.733,30.853,3.843,29.825 M3.07,34.483c-0.663-0.966-0.139-1.362-0.219-2.384
				c0.391,0.061,1.034,1.339,1.071,2.059c0.19-0.405,1.039-0.783,1.639-1.256c-0.323,0.723-0.125,1.113-0.784,1.684
				c-0.461,0.438-0.696,0.327-0.875,0.358c-0.059-0.29-0.231-0.538-0.432-0.786c0.153,0.327,0.171,0.656,0.171,1.029
				C3.537,34.942,3.631,34.812,3.07,34.483 M2.006,35.162c0.393,0.092,1.063,1.409,1.063,2.12c0.233-0.425,1.042-0.711,1.641-1.182
				c-0.314,0.705-0.118,1.1-0.758,1.646c-0.462,0.414-0.685,0.279-0.881,0.316c-0.063-0.273-0.229-0.542-0.436-0.78
				c0.138,0.325,0.201,0.671,0.201,1.025c-0.108-0.222-0.015-0.354-0.583-0.736C1.572,36.575,2.104,36.193,2.006,35.162
				 M3.096,40.312c-0.117-0.289-0.334-0.521-0.578-0.766c0.208,0.31,0.318,0.678,0.375,1.021c-0.164-0.193-0.12-0.344-0.692-0.658
				c-0.849-0.92-0.504-1.136-0.775-2.18c0.371,0.012,1.335,1.129,1.525,1.803c0.1-0.425,0.844-0.874,1.365-1.422
				c-0.198,0.748,0.093,1.099-0.431,1.744C3.52,40.333,3.266,40.238,3.096,40.312 M4.079,40.5v0.368
				c-0.284,0.183-0.59,0.396-0.776,0.635C3.45,41.102,3.685,40.977,4.079,40.5 M1.426,40.868c0.358,0.067,1.347,1.196,1.525,1.908
				c0.1-0.438,0.844-0.828,1.334-1.367c-0.173,0.715,0.099,1.126-0.402,1.742c-0.363,0.467-0.617,0.343-0.771,0.441
				c-0.124-0.304-0.339-0.563-0.571-0.788c0.188,0.304,0.302,0.668,0.373,1.035c-0.152-0.221-0.096-0.367-0.691-0.719
				C1.375,42.206,1.717,41.95,1.426,40.868 M2.951,44.668v0.113C2.762,44.44,2.426,44,2.006,43.656
				C2.598,43.998,2.802,44.333,2.951,44.668 M1.3,43.917c0.351,0.023,1.412,0.954,1.677,1.638C3.006,45.095,3.64,44.587,4.025,44
				c-0.037,0.776,0.3,1.164-0.104,1.832c-0.255,0.525-0.517,0.415-0.648,0.525c-0.178-0.285-0.423-0.522-0.692-0.731
				c0.253,0.285,0.417,0.659,0.53,1.01c-0.167-0.182-0.135-0.351-0.762-0.62C0.847,44.705,2.426,46.455,1.3,43.917 M3.241,47.5
				l-0.029,0.25c-0.165-0.4-0.578-0.781-0.975-1.069C2.68,46.939,2.999,47.248,3.241,47.5 M3.166,48.529
				c0.076-0.478,0.719-1.164,1.15-1.893c-0.111,0.808,0.184,1.143-0.237,1.946c-0.31,0.611-0.542,0.587-0.686,0.744
				c-0.152-0.275-0.354-0.449-0.622-0.611c0.227,0.265,0.34,0.57,0.452,0.943c-0.173-0.184-0.13-0.35-0.707-0.492
				c-0.884-0.681-0.482-1.006-0.852-1.977C2.006,47.102,2.977,47.878,3.166,48.529 M1.822,49.475
				c0.353-0.133,1.519,0.661,1.845,1.311c-0.025-0.464,0.518-1.229,0.833-1.987c0.028,0.794,0.382,1.066,0.075,1.88
				c-0.191,0.687-0.463,0.687-0.583,0.843c-0.196-0.25-0.426-0.401-0.717-0.498c0.264,0.182,0.439,0.503,0.611,0.811
				c-0.2-0.113-0.187-0.308-0.813-0.311C2.071,50.966,2.35,50.371,1.822,49.475 M4.704,53.776c-0.04-0.468,0.517-1.229,0.804-1.977
				c0.05,0.787,0.406,1.034,0.111,1.887c-0.201,0.617-0.44,0.617-0.565,0.773c-0.204-0.205-0.463-0.365-0.731-0.478
				c0.261,0.222,0.439,0.51,0.616,0.822c-0.206-0.108-0.192-0.299-0.823-0.312c-1.046-0.511-0.745-1.131-1.296-2.006
				C3.166,52.362,4.361,53.133,4.704,53.776 M3.468,54.862c0.327-0.168,1.687,0.408,2.139,0.968
				c-0.107-0.455,0.311-1.246,0.495-2.038c0.176,0.777,0.578,0.959,0.429,1.803c-0.078,0.635-0.332,0.698-0.429,0.844
				c-0.244-0.203-0.53-0.313-0.83-0.342c0.301,0.139,0.541,0.411,0.771,0.689c-0.229-0.107-0.238-0.278-0.888-0.206
				C4.025,56.273,4.185,55.625,3.468,54.862 M4.775,57.51c0.333-0.151,1.7,0.466,2.158,1.054c-0.105-0.439,0.342-1.205,0.55-1.963
				c0.144,0.758,0.563,0.942,0.39,1.767c-0.116,0.63-0.366,0.675-0.476,0.82c-0.248-0.19-0.533-0.319-0.847-0.396
				c0.314,0.164,0.554,0.43,0.779,0.718c-0.226-0.104-0.243-0.284-0.903-0.21C5.271,58.916,5.5,58.301,4.775,57.51 M5.805,59.707
				c0.335-0.194,1.818,0.216,2.375,0.69c-0.182-0.396,0.133-1.196,0.213-1.946c0.289,0.702,0.739,0.851,0.729,1.643
				c-0.036,0.612-0.274,0.684-0.356,0.845c-0.273-0.161-0.585-0.206-0.901-0.232c0.331,0.103,0.628,0.296,0.875,0.557
				c-0.224-0.069-0.281-0.235-0.943-0.106C6.58,60.971,6.657,60.364,5.805,59.707 M9.143,61.89l0.11,0.336
				c-0.295-0.253-0.741-0.441-1.208-0.551C8.491,61.675,8.848,61.783,9.143,61.89 M7.216,62.045
				c0.342-0.174,1.843,0.332,2.401,0.864c-0.186-0.434,0.175-1.179,0.28-1.913c0.28,0.71,0.746,0.881,0.679,1.674
				c-0.021,0.603-0.287,0.657-0.367,0.806c-0.28-0.199-0.594-0.252-0.928-0.321c0.353,0.122,0.648,0.39,0.906,0.641
				c-0.258-0.082-0.276-0.251-0.977-0.184C7.974,63.328,8.067,62.728,7.216,62.045 M12.608,65.869
				c-0.236-0.199-0.487-0.446-1.002-0.311c-1.317-0.136-1.655-0.959-2.633-1.503c0.31-0.209,1.904,0.082,2.563,0.497
				c-0.242-0.367-0.044-1.111-0.086-1.842c0.418,0.634,0.913,0.728,1.003,1.516c0.105,0.648,0.105,1.016,0.232,1.383
				c-0.191-0.187-0.448-0.357-0.702-0.475C12.235,65.343,12.429,65.583,12.608,65.869 M11.032,63.965v-0.033l0.017,0.033H11.032z
				 M19.477,69.251c-2.858-0.87-5.335-2.215-5.976-3.206c-0.235-0.516-0.302-1.146-0.445-1.967l-0.021-0.06
				c2.024,1.72,4.237,2.964,6.611,3.546h-0.207C18.639,68.54,19.075,69.037,19.477,69.251 M22.844,66.938
				c-7.84-0.161-12.477-6.558-14.25-9.658c-0.281-0.359,4.462-1.858,5.526-2.137l1.31-0.339c0.05,0.596,1.058,0.782,0.986,0.548
				c0.238,0.13-0.076,0.499,0.514,0.94c0.65,0.449,1.031,0.189,1.102,0.063c-0.384,0.408,0.969,1.127,1.769,0.637
				c-0.113,0.398,0.558,0.546,0.702,0.555c0.28,0.17,0.971,0.315,1.5,0v4.326c0.087,0.801,0.118,1.002,0.497,1.13
				c1.739,0.154,1.37-0.411,1.556-0.929c-0.056-1.847-0.104-4.536-0.104-4.527c1.209-0.156,0.896-0.416,1.35-0.555
				c0.502,0.08,0.77,0.074,1.214-0.527c0.629,0.066,1.178-0.131,1.369-0.66c0.514,0.188,1.275-0.322,1.692-1.284
				c1.153,0.373,5.391,2.61,7.341,3.223C36.024,59.197,31.153,66.938,22.844,66.938 M36.479,62.398
				c0.185-0.087,0.412-0.166,0.681-0.172c-0.293,0.118-0.574,0.243-0.771,0.389L36.479,62.398z M34.543,64.346l-0.013,0.013
				L34.543,64.346z M32.503,64.445c-0.143,0.743-0.211,1.269-0.352,1.771c-0.722,1.349-4.337,2.533-5.844,3.025
				c0.444-0.427,0.709-1.269,0.074-1.677h-0.124c2.239-0.571,4.355-1.687,6.28-3.217L32.503,64.445z M34.3,65.739
				c-0.57-0.133-0.957,0.212-1.24,0.439c0.227-0.31,0.475-0.654,0.727-0.835c-0.281,0.076-0.553,0.215-0.767,0.362
				c0.021-0.286-0.016-0.6,0.073-1.115c0.099-0.782,0.617-0.874,1.039-1.538c-0.052,0.746,0.168,1.531-0.117,1.913
				c0.68-0.413,2.313-0.701,2.633-0.479C35.628,65.02,35.614,65.65,34.3,65.739 M36.39,64.017c-0.689-0.085-0.726,0.095-0.983,0.168
				c0.285-0.253,0.585-0.469,0.918-0.635c-0.333,0.062-0.661,0.141-0.935,0.326c-0.068-0.163-0.348-0.224-0.348-0.844
				c-0.049-0.807,0.431-0.975,0.724-1.671c0.083,0.744,0.415,1.512,0.24,1.953c0.573-0.542,2.13-1.043,2.461-0.867
				C37.59,63.155,37.683,63.77,36.39,64.017 M37.861,61.707c-0.668-0.112-0.721,0.033-0.968,0.121
				c0.28-0.234,0.567-0.488,0.912-0.599c-0.337,0.031-0.632,0.095-0.934,0.266c-0.059-0.171-0.338-0.235-0.338-0.876
				c-0.034-0.844,0.431-0.963,0.745-1.662c0.059,0.75,0.391,1.551,0.219,1.979c0.557-0.525,2.064-0.921,2.383-0.695
				C39.015,60.887,39.117,61.512,37.861,61.707 M39.257,59.777c-0.679-0.025-0.697,0.146-0.913,0.256
				c0.215-0.281,0.45-0.572,0.773-0.725c-0.321,0.062-0.609,0.186-0.839,0.377c-0.117-0.173-0.375-0.191-0.5-0.816
				c-0.187-0.851,0.23-1.051,0.415-1.805c0.185,0.754,0.648,1.535,0.563,2.01c0.463-0.627,1.832-1.255,2.174-1.082
				C40.234,58.777,40.417,59.406,39.257,59.777 M40.732,57.03c-0.663-0.063-0.676,0.101-0.89,0.215
				c0.215-0.278,0.459-0.525,0.788-0.714c-0.329,0.073-0.609,0.188-0.853,0.372c-0.097-0.161-0.354-0.228-0.456-0.883
				c-0.145-0.864,0.28-1.059,0.456-1.808c0.188,0.767,0.608,1.589,0.5,2.061c0.457-0.585,1.828-1.164,2.15-0.973
				C41.711,56.064,41.875,56.717,40.732,57.03 M41.774,54.89c-0.634,0-0.623,0.199-0.821,0.329c0.162-0.329,0.365-0.638,0.615-0.829
				c-0.275,0.114-0.529,0.244-0.734,0.5c-0.12-0.155-0.398-0.196-0.574-0.807c-0.296-0.852,0.077-1.13,0.111-1.925
				c0.311,0.76,0.838,1.527,0.838,1.987c0.359-0.636,1.557-1.396,1.907-1.313C42.544,53.735,42.844,54.39,41.774,54.89
				 M42.014,52.786l0.483-0.247L42.014,52.786z M42.844,51.833c-0.642,0.042-0.617,0.232-0.824,0.345
				c0.17-0.315,0.359-0.617,0.624-0.811c-0.282,0.103-0.535,0.232-0.729,0.466c-0.113-0.137-0.366-0.137-0.596-0.788
				c-0.308-0.864,0.068-1.147,0.092-1.956c0.293,0.775,0.851,1.544,0.851,2.031c0.31-0.671,1.508-1.488,1.852-1.351
				C43.575,50.681,43.881,51.324,42.844,51.833"/>
			<path fill="#FBCF5B" d="M16.653,15.284c0.739-0.333,0.938-0.566,0.938-0.566l-2.379-0.609l2.426-0.502
				c0,0-0.06-0.126-1.477-0.576c-0.274-0.089-0.044-0.367-1.224-0.606c0.425-0.083,0.297,0.117,1.104,0.24
				c0.546,0.008,0.975,0.107,1.766-0.065c0,0-1.443-1.115-2.393-1.62c0,0,1.577,0.419,2.826,0.722c0-0.133-0.998-0.891-1.652-1.691
				l-0.359-0.464c0.687,0.268,0.687,0.465,1.044,0.689c0.426,0.152,1.23,0.611,1.52,0.577c-0.702-0.999-1.694-2.431-1.694-2.431
				l2.484,1.687c-0.104-0.645-0.561-1.147-0.61-1.381c-0.298-1.063-0.203-0.966-0.439-1.368c0.674,1.016,0.925,1.558,1.95,2.167
				l-0.441-3.075l1.484,2.708c0.104-0.377,0-1.131-0.053-1.397c0.159-1.396,0.159-0.575-0.018-1.616
				c0.162,0.587,0.162,0.485,0.251,1.203c0.271,0.587,0.468,1.043,0.8,1.591l0.61-2.871l0.405,2.893
				c0.322-0.589,0.282-0.932,0.586-1.387c0.458-0.776,0.607-1.411,0.607-1.411c-0.227,1.186-0.198,0.789-0.314,1.411
				c0.03,0.616-0.004,1.466,0.161,1.571l1.778-2.56l-0.709,2.999c0.203-0.064,0.935-0.991,1.586-1.481l0.549-0.685
				c-0.418,0.52-0.549,0.864-0.77,1.275c-0.281,0.721-0.221,0.487-0.54,1.484l2.537-1.747l-1.732,2.492c0,0,0.145,0.06,1.277-0.57
				c0.682-0.167,1.225-0.445,1.582-0.693c-0.836,0.744-1.212,0.693-2.301,2.136l2.85-0.592l-2.488,1.499
				c0.129,0.155,1.136-0.138,1.868,0c0.649,0.041,0.649,0.052,1.282-0.065c-0.739,0.263-0.953,0.115-1.756,0.431
				c-0.355,0.198-1.075,0.47-1.167,0.641l2.876,0.528c0,0-2.827,0.646-3.309,0.829l-0.506-0.019l-0.367,0.033l0.136-0.625
				c-0.959,0.243-1.855-0.024-2.612,0.165c0.091-0.225,0.091-0.432,0.034-0.549c-1.189,0.532-2.188,0.272-3.156,1.061
				c0.023-0.228-0.031-0.511-0.139-0.788c-1.026,0.561-1.929,0.212-2.646,0.842c0.027-0.21,0.027-0.382-0.039-0.533
				c-1.084,0.428-1.905,0.574-2.712,1.36c-0.188-0.032-0.427-0.064-0.645-0.077l-0.078-0.111l-0.102,0.105l-0.509,0.017
				C15.657,15.604,16.215,15.526,16.653,15.284"/>
			<path fill="#1D1D1B" d="M26.958,12.213l0.3,0.005c0,0-0.185-1.333-2.572-1.172h-0.558l-0.265,0.74l1.631-0.114
				C25.495,11.672,26.613,11.571,26.958,12.213"/>
			<path fill="#1D1D1B" d="M24.338,13.105l0.374-0.399l0.071,0.009l-0.041,0.169c0,0.262,0.131,0.478,0.381,0.575h0.413
				c0.233-0.098,0.371-0.322,0.371-0.575l-0.04-0.166c0.213,0.052,0.475,0.166,0.595,0.4l0.497,0.027c0,0-0.283-1.263-2.56-0.917
				l-0.56,0.866L24.338,13.105"/>
			<path fill="#1D1D1B" d="M19.165,13.105l0.52-0.063c0.133-0.238,0.375-0.335,0.577-0.376l-0.047,0.155
				c0,0.277,0.141,0.482,0.382,0.58h0.405c0.24-0.098,0.407-0.305,0.407-0.58l-0.041-0.066l0.099-0.034l0.325,0.321l0.521-0.01
				l-0.543-0.843C19.477,11.783,19.165,13.105,19.165,13.105"/>
			<path fill="#1D1D1B" d="M20.542,11.648l1.679,0.11l-0.19-0.711h-0.438c-2.55-0.161-2.771,1.113-2.771,1.113l0.319-0.005
				C19.477,11.497,20.542,11.648,20.542,11.648"/>
			<path fill="#009651" d="M44.312,47.171c-0.376,0.989,0,1.614-0.889,2.304c-0.579,0.12-0.554,0.323-0.715,0.492
				c0.096-0.372,0.226-0.725,0.441-0.967c-0.245,0.168-0.47,0.342-0.614,0.607c-0.156-0.13-0.37-0.1-0.691-0.728
				c-0.434-0.829-0.141-1.152-0.274-1.984c0.432,0.744,1.098,1.406,1.192,1.905C42.964,48.1,43.936,47.08,44.312,47.171"/>
			<path fill="#009651" d="M44.708,43.82c-0.445,1.048-0.124,1.541-1.118,2.428c-0.626,0.263-0.602,0.434-0.791,0.648
				c0.135-0.386,0.291-0.744,0.544-1.036c-0.283,0.223-0.527,0.467-0.702,0.735c-0.136-0.085-0.399,0-0.687-0.523
				c-0.388-0.711-0.026-1.119-0.091-1.882c0.394,0.597,1.039,1.155,1.09,1.597C43.235,45.029,44.348,43.82,44.708,43.82"/>
			<path fill="#009651" d="M42.964,42.947c0.168-0.741,1.095-2.079,1.474-2.131c-0.285,1.09,0.133,1.522-0.729,2.498
				c-0.613,0.351-0.535,0.508-0.694,0.732c0.065-0.382,0.184-0.758,0.377-1.062c-0.243,0.229-0.458,0.506-0.594,0.774
				c-0.133-0.055-0.394,0.061-0.778-0.424c-0.509-0.617-0.219-1.051-0.414-1.774C42.104,42.078,42.844,42.491,42.964,42.947"/>
			<path fill="#009651" d="M44.437,37.616c-0.285,1.047,0.144,1.495-0.705,2.407c-0.615,0.311-0.552,0.477-0.699,0.676
				c0.063-0.365,0.173-0.737,0.359-1.01c-0.243,0.221-0.436,0.445-0.587,0.749c-0.138-0.063-0.399,0.018-0.804-0.477
				c-0.499-0.645-0.227-1.018-0.431-1.768c0.507,0.562,1.275,1,1.415,1.431C43.133,38.88,44.059,37.642,44.437,37.616"/>
			<path fill="#009651" d="M42.818,37.341c0.026-0.737,0.709-2.067,1.079-2.156c-0.07,1.072,0.449,1.419-0.23,2.441
				c-0.573,0.398-0.461,0.533-0.589,0.759c0-0.36,0.039-0.722,0.198-1.044c-0.213,0.266-0.388,0.491-0.457,0.817
				c-0.175-0.046-0.404,0.097-0.888-0.375c-0.65-0.525-0.43-0.949-0.779-1.634C41.774,36.606,42.607,36.928,42.818,37.341"/>
			<path fill="#009651" d="M15.522,18.113c0.146-0.193,0.332-0.193,0.461-0.86c0.425-1.343,1.166-1.184,2.113-1.821
				c0.331,0.415-0.825,1.925-1.548,2.378c0.447-0.07,1.075,0.493,1.735,0.756c-0.768,0.088-1.083,0.488-1.821,0.24
				c-0.553-0.199-0.522-0.463-0.656-0.561c0.249-0.235,0.438-0.53,0.606-0.83C16.175,17.717,15.854,17.944,15.522,18.113"/>
			<path fill="#009651" d="M28.569,17.672c-0.294,0-0.571-0.086-0.846-0.185c0.42-0.131,0.811-0.292,1.152-0.514
				c0.748,0.157,1.371,0.514,1.424,1.141c-0.63-0.185-0.742,0.212-1.668,0.369c-0.857,0.187-1.308-0.3-2.048-0.433
				c-0.24-0.199-0.324-0.377-0.324-0.495c0.376,0.07,0.781,0.07,1.144,0.004l-0.015,0.107
				C27.785,17.818,28.177,17.777,28.569,17.672"/>
			<path fill="#009651" d="M25.836,16.6c0.422,0.027,0.776-0.098,1.121-0.248c-0.249,0.05-0.531,0.033-0.801,0
				c0.499-0.327,0.86-0.75,1.566-0.728c0.955,0.015,0.958,0.57,1.557,0.284C29.315,16.402,26.563,17.667,25.836,16.6"/>
			<path fill="#009651" d="M24.485,16.402c0.442,0.139,0.895,0.916,1.421,1.45c-0.709-0.225-1.083,0.035-1.729-0.502
				c-0.478-0.421-0.404-0.666-0.47-0.818c0.286-0.129,0.517-0.308,0.729-0.557c-0.297,0.194-0.639,0.268-1.008,0.314
				c0.198-0.12,0.369-0.066,0.642-0.648c0.87-0.835,1.327-0.38,2.354-0.6C26.381,15.432,25.207,16.29,24.485,16.402"/>
			<path fill="#009651" d="M22.261,16.6c0.456,0.055,0.989,0.718,1.6,1.141c-0.755-0.074-1.079,0.243-1.775-0.156
				c-0.541-0.317-0.471-0.567-0.584-0.699c0.275-0.175,0.473-0.422,0.656-0.705c-0.264,0.249-0.601,0.397-0.941,0.527
				c0.175-0.206,0.339-0.168,0.558-0.8c0.76-0.974,1.095-0.587,2.092-1.045C23.878,15.261,22.946,16.329,22.261,16.6"/>
			<path fill="#009651" d="M20.739,17.962c-0.749,0-1.092,0.363-1.813,0.005c-0.544-0.226-0.484-0.48-0.612-0.618
				c0.272-0.173,0.478-0.441,0.657-0.747c-0.255,0.259-0.597,0.476-0.942,0.601c0.175-0.184,0.345-0.142,0.543-0.818
				c0.722-1.051,1.225-0.744,2.207-1.274c0.029,0.377-0.998,1.554-1.69,1.877C19.527,17.02,20.112,17.627,20.739,17.962"/>
			<path fill="#009651" d="M43.054,32.054c-0.071,1.066,0.467,1.444-0.236,2.429c-0.559,0.366-0.457,0.514-0.574,0.727
				c0-0.36,0.015-0.727,0.17-1.052c-0.21,0.248-0.361,0.5-0.425,0.841c-0.19-0.086-0.42,0.054-0.889-0.412
				c-0.684-0.57-0.472-0.961-0.8-1.691c0.619,0.481,1.459,0.845,1.688,1.264C41.99,33.425,42.666,32.127,43.054,32.054"/>
			<path fill="#009651" d="M41.386,31.961c-0.138-0.729,0.297-2.089,0.659-2.225c0.12,1.058,0.747,1.37,0.216,2.421
				c-0.46,0.425-0.331,0.558-0.4,0.781c-0.086-0.356-0.115-0.711-0.041-1.023c-0.137,0.241-0.258,0.522-0.271,0.827
				c-0.189-0.028-0.41,0.136-0.961-0.256c-0.77-0.473-0.653-0.91-1.117-1.56C40.177,31.332,41.1,31.572,41.386,31.961"/>
			<path fill="#009651" d="M40.548,26.733c0.136,1.068,0.742,1.376,0.213,2.429c-0.461,0.405-0.348,0.54-0.421,0.764
				c-0.064-0.358-0.102-0.71-0.017-1.039c-0.148,0.243-0.272,0.533-0.292,0.828c-0.19-0.046-0.389,0.091-0.958-0.296
				c-0.761-0.508-0.622-0.934-1.1-1.595c0.687,0.399,1.612,0.686,1.913,1.089C39.752,28.166,40.197,26.822,40.548,26.733"/>
			<path fill="#009651" d="M39.132,24.543c0.327,1,0.979,1.259,0.687,2.372c-0.396,0.445-0.254,0.588-0.282,0.801
				c-0.144-0.335-0.236-0.69-0.23-1.034c-0.089,0.299-0.175,0.566-0.115,0.891c-0.204-0.035-0.375,0.144-1-0.175
				c-0.858-0.417-0.802-0.845-1.379-1.471c0.77,0.333,1.707,0.483,2.068,0.878C38.62,26.063,38.796,24.693,39.132,24.543"/>
			<path fill="#009651" d="M37.162,21.59c0.468,1.023,0.812,0.918,0.781,2.271c-0.232,0.656-0.082,0.749-0.062,1.024
				c-0.175-0.343-0.326-0.736-0.387-1.113c-0.036,0.325-0.029,0.685,0.087,1.019c-0.18,0.047-0.302,0.275-0.872,0.12
				c-0.782-0.17-0.839-0.69-1.44-1.168c0.723,0.128,1.568,0,1.923,0.285C36.868,23.353,36.912,21.88,37.162,21.59"/>
			<path fill="#009651" d="M35.426,22.122c-0.379-0.606-0.494-2.04-0.252-2.34c0.552,0.943,0.928,0.745,1.01,2.042
				c-0.156,0.684,0,0.748,0.05,1.008c-0.226-0.3-0.435-0.646-0.509-1.008c0.001,0.345,0.043,0.662,0.178,0.979
				c-0.176,0.052-0.258,0.323-0.855,0.243c-0.807-0.053-0.927-0.56-1.574-0.924C34.201,22.122,35.045,21.899,35.426,22.122"/>
			<path fill="#009651" d="M32.67,17.584c0.617,0.898,1.236,0.833,1.374,2.105c-0.175,0.656,0,0.721,0.046,0.956
				c-0.233-0.301-0.438-0.595-0.55-0.943c0.021,0.348,0.078,0.642,0.218,0.943c-0.181,0.078-0.253,0.338-0.885,0.278
				c-0.827,0-0.95-0.458-1.63-0.818c0.767-0.021,1.589-0.298,2.005-0.081C32.788,19.415,32.443,17.902,32.67,17.584"/>
			<path fill="#009651" d="M31.979,17.777c-0.102,0.728,0.126,0.681,0.212,0.987l-0.186-0.053c-0.264-0.282-0.494-0.604-0.611-0.792
				c0.118,0.585,0.141,0.763,0.348,1.053c-0.063,0.096-0.207,0.198-0.562,0.239c-1.019,0.059-1.21-0.173-1.611-0.394
				c0.68-0.286,1.001-0.64,1.651-0.42l-0.068-0.19h0.039l-0.039-0.023c-0.068-0.217-0.263-0.467-0.564-0.722
				c-0.311-0.534-0.512-1.109-0.382-1.325C30.946,16.887,31.656,16.579,31.979,17.777"/>
			<path fill="#009651" d="M13.281,18.712c0.318-1.156,0.93-1.009,1.657-1.739c0.2,0.331-0.345,1.711-0.903,2.197
				c0.435-0.133,1.228,0.273,1.978,0.439c-0.711,0.201-0.909,0.635-1.729,0.499c-0.64-0.081-0.685-0.34-0.846-0.425
				c0.181-0.268,0.269-0.54,0.333-0.866c-0.151,0.324-0.405,0.565-0.686,0.801C13.179,19.395,13.349,19.374,13.281,18.712"/>
			<path fill="#009651" d="M11.481,20.182c0.126-1.228,0.739-1.178,1.357-2.074c0.185,0.305-0.126,1.826-0.574,2.409
				c0.382-0.202,1.215,0.056,1.948,0.111c-0.663,0.297-0.774,0.772-1.592,0.797c-0.62,0.039-0.697-0.232-0.864-0.285
				c0.128-0.281,0.198-0.594,0.198-0.943c-0.092,0.368-0.304,0.662-0.52,0.951C11.481,20.895,11.647,20.857,11.481,20.182"/>
			<path fill="#009651" d="M9.432,21.899c0.101-1.314,0.439-1.175,1.015-2.118c0.209,0.3,0.109,1.809-0.269,2.397
				c0.378-0.229,1.18,0,1.925-0.033c-0.651,0.402-0.75,0.878-1.545,0.948c-0.604,0.033-0.696-0.202-0.84-0.239
				c0.12-0.307,0.154-0.612,0.154-0.974c-0.056,0.362-0.254,0.693-0.484,0.974C9.432,22.614,9.593,22.547,9.432,21.899"/>
			<path fill="#009651" d="M8.514,21.762c0.243,0.292,0.277,1.786-0.065,2.461c0.377-0.278,1.167-0.161,1.895-0.278
				c-0.604,0.481-0.653,0.968-1.418,1.166c-0.579,0.146-0.702-0.105-0.86-0.139c0.113-0.316,0.113-0.648,0.084-0.982
				c-0.051,0.362-0.202,0.731-0.373,1.047c0.01-0.243,0.161-0.316-0.079-0.974C7.679,22.742,8.053,22.802,8.514,21.762"/>
			<path fill="#009651" d="M6.511,24.721c0.337,0.138,0.512,1.523,0.233,2.207c0.361-0.327,1.29-0.52,2.067-0.846
				c-0.584,0.592-0.538,1.021-1.361,1.449c-0.621,0.295-0.792,0.146-0.997,0.185c0.045-0.318,0-0.607-0.112-0.892
				c0.024,0.344-0.091,0.708-0.233,1.044c-0.023-0.254,0.134-0.363-0.274-0.801C5.548,25.979,6.211,25.704,6.511,24.721"/>
			<path fill="#009651" d="M4.897,29.264C4.396,28.223,5,27.905,5.1,26.887c0.353,0.105,0.814,1.402,0.682,2.127
				c0.275-0.38,1.175-0.684,1.875-1.075c-0.468,0.623-0.329,1.058-1.081,1.567c-0.555,0.392-0.765,0.23-0.948,0.299
				c-0.01-0.299-0.131-0.556-0.279-0.809c0.083,0.326,0.052,0.672-0.022,1.013C5.257,29.805,5.39,29.668,4.897,29.264"/>
			<path fill="#009651" d="M3.865,29.84c0.343,0.104,0.765,1.433,0.635,2.177c0.305-0.393,1.195-0.644,1.891-1.006
				c-0.477,0.613-0.348,1.043-1.112,1.521c-0.542,0.36-0.734,0.208-0.918,0.268c-0.024-0.31-0.133-0.58-0.282-0.838
				c0.079,0.316,0.033,0.639-0.046,1.015C3.974,32.743,4.09,32.6,3.631,32.19C3.131,31.164,3.733,30.853,3.865,29.84"/>
			<path fill="#009651" d="M3.096,34.483c-0.688-0.952-0.149-1.347-0.229-2.367c0.371,0.042,1.055,1.322,1.055,2.063
				c0.196-0.429,1.053-0.775,1.651-1.254c-0.337,0.698-0.125,1.106-0.77,1.659c-0.478,0.439-0.713,0.328-0.881,0.358
				c-0.079-0.285-0.237-0.538-0.433-0.764c0.141,0.305,0.177,0.646,0.177,1.007C3.541,34.996,3.642,34.824,3.096,34.483"/>
			<path fill="#009651" d="M2.034,35.185c0.373,0.068,1.036,1.386,1.062,2.112c0.218-0.396,1.022-0.727,1.641-1.197
				c-0.339,0.705-0.131,1.1-0.761,1.646c-0.485,0.414-0.702,0.279-0.878,0.34c-0.057-0.302-0.245-0.567-0.434-0.804
				c0.16,0.325,0.18,0.676,0.18,1.048c-0.117-0.244-0.006-0.372-0.569-0.755C1.592,36.575,2.119,36.22,2.034,35.185"/>
			<path fill="#009651" d="M3.112,40.322c-0.124-0.299-0.339-0.53-0.571-0.741c0.188,0.275,0.302,0.644,0.352,1.003
				c-0.131-0.205-0.072-0.357-0.675-0.662c-0.866-0.924-0.501-1.145-0.792-2.188c0.371,0.04,1.347,1.128,1.525,1.802
				c0.12-0.425,0.862-0.873,1.374-1.421c-0.185,0.747,0.097,1.098-0.44,1.743C3.537,40.333,3.274,40.238,3.112,40.322"/>
			<path fill="#009651" d="M1.426,40.868c0.371,0.067,1.347,1.196,1.523,1.908c0.122-0.399,0.846-0.828,1.336-1.358
				c-0.173,0.726,0.111,1.117-0.402,1.754c-0.35,0.484-0.609,0.322-0.751,0.43c-0.133-0.313-0.358-0.572-0.585-0.775
				c0.193,0.282,0.297,0.663,0.377,1.012c-0.162-0.182-0.089-0.349-0.685-0.686C1.384,42.206,1.717,41.962,1.426,40.868"/>
			<path fill="#009651" d="M1.312,43.917c0.353,0.021,1.415,0.954,1.677,1.641c0.051-0.439,0.679-0.97,1.045-1.557
				c-0.042,0.776,0.305,1.164-0.092,1.835c-0.271,0.522-0.538,0.45-0.648,0.522c-0.2-0.272-0.442-0.522-0.713-0.709
				c0.261,0.263,0.418,0.637,0.55,0.997c-0.181-0.191-0.153-0.36-0.78-0.63C0.847,44.705,2.426,46.46,1.312,43.917"/>
			<path fill="#009651" d="M3.188,48.542c0.051-0.48,0.713-1.177,1.138-1.896c-0.097,0.798,0.203,1.133-0.235,1.937
				c-0.311,0.63-0.558,0.587-0.685,0.744c-0.167-0.263-0.36-0.449-0.632-0.611C3,48.978,3.131,49.307,3.238,49.659
				c-0.167-0.181-0.143-0.352-0.72-0.489c-0.866-0.667-0.478-1.011-0.819-1.973C2.034,47.102,2.977,47.878,3.188,48.542"/>
			<path fill="#009651" d="M1.839,49.475c0.342-0.133,1.517,0.681,1.826,1.342c-0.025-0.48,0.538-1.26,0.833-2.019
				c0.045,0.794,0.396,1.066,0.086,1.898c-0.203,0.668-0.475,0.668-0.571,0.824c-0.202-0.25-0.448-0.401-0.723-0.498
				c0.271,0.209,0.441,0.502,0.59,0.822c-0.182-0.126-0.182-0.32-0.79-0.324C2.084,50.998,2.357,50.371,1.839,49.475"/>
			<path fill="#009651" d="M4.71,53.792c-0.017-0.478,0.513-1.228,0.809-1.99c0.042,0.788,0.4,1.035,0.116,1.886
				c-0.199,0.659-0.456,0.659-0.58,0.806C4.871,54.254,4.605,54.14,4.336,54c0.255,0.209,0.449,0.505,0.623,0.826
				c-0.209-0.133-0.195-0.321-0.815-0.335c-1.051-0.51-0.773-1.13-1.31-2.005C3.188,52.365,4.384,53.133,4.71,53.792"/>
			<path fill="#009651" d="M3.489,54.89c0.323-0.196,1.679,0.393,2.131,0.937c-0.111-0.431,0.328-1.245,0.482-2.035
				c0.189,0.775,0.591,0.972,0.447,1.813c-0.097,0.624-0.338,0.684-0.44,0.839c-0.241-0.212-0.525-0.272-0.838-0.348
				c0.313,0.175,0.554,0.411,0.787,0.689c-0.233-0.068-0.255-0.278-0.891-0.206C4.025,56.292,4.205,55.625,3.489,54.89"/>
			<path fill="#009651" d="M4.803,57.536c0.324-0.174,1.682,0.456,2.134,1.03c-0.093-0.441,0.368-1.204,0.55-1.938
				c0.155,0.734,0.575,0.946,0.392,1.763c-0.102,0.607-0.363,0.655-0.459,0.801c-0.247-0.193-0.537-0.319-0.841-0.396
				c0.305,0.166,0.562,0.434,0.752,0.717c-0.208-0.106-0.226-0.285-0.877-0.211C5.279,58.916,5.5,58.301,4.803,57.536"/>
			<path fill="#009651" d="M5.814,59.707c0.335-0.194,1.807,0.216,2.364,0.688c-0.176-0.393,0.133-1.193,0.214-1.943
				c0.298,0.702,0.75,0.857,0.729,1.658c0,0.623-0.274,0.679-0.344,0.829c-0.264-0.15-0.584-0.206-0.904-0.234
				c0.32,0.102,0.617,0.323,0.886,0.569c-0.232-0.06-0.301-0.246-0.951-0.101C6.6,60.971,6.66,60.364,5.814,59.707"/>
			<path fill="#009651" d="M7.232,62.045c0.34-0.168,1.833,0.353,2.403,0.864c-0.175-0.411,0.179-1.179,0.275-1.913
				c0.266,0.734,0.734,0.891,0.665,1.674c0,0.602-0.282,0.653-0.356,0.808c-0.286-0.163-0.584-0.255-0.921-0.325
				c0.351,0.162,0.632,0.39,0.903,0.652C9.95,63.713,9.91,63.542,9.23,63.611C7.974,63.344,8.086,62.728,7.232,62.045"/>
			<path fill="#009651" d="M12.619,65.869c-0.237-0.17-0.498-0.446-1.011-0.311c-1.313-0.136-1.65-0.932-2.611-1.506
				c0.305-0.206,1.903,0.107,2.555,0.531c-0.258-0.398-0.048-1.143-0.076-1.873c0.398,0.634,0.894,0.74,0.991,1.516
				c0.101,0.648,0.093,1.025,0.229,1.402c-0.199-0.209-0.442-0.364-0.709-0.484C12.235,65.343,12.453,65.606,12.619,65.869"/>
			<path fill="#009651" d="M34.3,65.739c-0.563-0.133-0.934,0.225-1.228,0.448c0.22-0.318,0.468-0.66,0.715-0.813
				c-0.265,0.045-0.53,0.184-0.744,0.339c0.015-0.294-0.021-0.607,0.067-1.123c0.1-0.77,0.622-0.874,1.058-1.538
				c-0.076,0.746,0.134,1.538-0.122,1.913c0.663-0.413,2.283-0.701,2.604-0.479C35.633,65.048,35.614,65.65,34.3,65.739"/>
			<path fill="#009651" d="M36.39,64.017c-0.667-0.085-0.726,0.095-0.983,0.168c0.287-0.253,0.585-0.469,0.956-0.635
				c-0.348,0.062-0.671,0.166-0.956,0.326c-0.068-0.163-0.337-0.224-0.361-0.844c-0.047-0.801,0.428-0.975,0.739-1.671
				c0.066,0.758,0.416,1.528,0.241,1.953c0.563-0.548,2.112-1.043,2.445-0.867C37.59,63.155,37.689,63.78,36.39,64.017"/>
			<path fill="#009651" d="M37.861,61.732c-0.656-0.131-0.711,0.01-0.965,0.099c0.286-0.239,0.57-0.487,0.923-0.599
				c-0.323,0.041-0.637,0.104-0.923,0.263c-0.083-0.169-0.339-0.234-0.363-0.857c-0.036-0.814,0.434-0.978,0.742-1.679
				c0.059,0.75,0.407,1.603,0.219,1.995c0.579-0.508,2.071-0.927,2.393-0.712C39.015,60.887,39.128,61.512,37.861,61.732"/>
			<path fill="#009651" d="M39.257,59.789c-0.669-0.034-0.677,0.134-0.904,0.249c0.227-0.286,0.46-0.556,0.776-0.729
				c-0.314,0.062-0.607,0.186-0.849,0.377c-0.086-0.155-0.362-0.173-0.488-0.816c-0.185-0.836,0.245-1.05,0.402-1.805
				c0.204,0.755,0.66,1.535,0.577,2.01c0.449-0.597,1.816-1.255,2.185-1.082C40.234,58.777,40.417,59.406,39.257,59.789"/>
			<path fill="#009651" d="M40.732,57.039c-0.651-0.072-0.663,0.091-0.89,0.206c0.227-0.278,0.481-0.527,0.788-0.715
				c-0.305,0.072-0.598,0.188-0.843,0.37c-0.107-0.16-0.354-0.224-0.442-0.874c-0.152-0.863,0.256-1.066,0.442-1.816
				c0.18,0.791,0.611,1.595,0.488,2.079c0.457-0.601,1.837-1.18,2.174-0.988C41.737,56.077,41.914,56.717,40.732,57.039"/>
			<path fill="#009651" d="M41.8,54.89c-0.649,0.027-0.64,0.219-0.832,0.329c0.156-0.304,0.349-0.623,0.601-0.813
				c-0.267,0.111-0.529,0.25-0.731,0.484c-0.122-0.155-0.363-0.174-0.561-0.807c-0.3-0.852,0.065-1.108,0.108-1.912
				c0.3,0.747,0.844,1.515,0.825,1.975c0.359-0.636,1.581-1.398,1.922-1.313C42.55,53.762,42.844,54.39,41.8,54.89"/>
			<path fill="#009651" d="M42.855,51.845c-0.631,0.058-0.631,0.219-0.81,0.367c0.146-0.337,0.333-0.633,0.621-0.845
				c-0.305,0.103-0.553,0.26-0.752,0.481c-0.113-0.152-0.366-0.152-0.596-0.804c-0.284-0.864,0.068-1.142,0.092-1.956
				c0.327,0.785,0.851,1.544,0.851,2.031c0.337-0.671,1.508-1.482,1.863-1.319C43.591,50.681,43.881,51.324,42.855,51.845"/>
			<path fill="#F0BB81" d="M37.861,55.808c0,0-3.253,0.523-7.215-2.106c0.3-0.388,0.474-1.477,0.3-2.103
				c-0.094-0.497-0.121-0.074-0.241,0.234c-0.374,0.952-0.672,1.034-1.083,1.345c-1.171-1.199-1.346-1.209-2.85-2.092
				c-1.09-0.581-1.181-0.953-1.789-1.339c-1.042,0.48-2.704,1.451-3.528,0.88c-0.677-0.339,0.804-0.729,1.388-1.647
				c0.526-0.732,1.149-0.938,1.998-0.732c1.62,0.339,2.443,0.924,4.869,1.969c2.941,0.228,5.132,1.108,8.131,1.763
				c0.498,0.142,1.231,0.199,1.582,0.235C39.038,53.406,38.66,54.254,37.861,55.808"/>
			<path fill="#F0BB81" d="M24.902,52.586c0.881,0.993,1.68,1.182,2.236,2.373c-0.179,0.354-0.535,0.446-0.916,0.231
				c-1.32-1.489-2.523-1.711-2.027-2.405c-0.281-0.036-0.495,0.345-0.445,0.576c0.216,1.028,1.435,1.465,1.77,2.389
				c-0.166,0.696-1.606,0.058-2.25-1.807l-0.034-0.076c-0.277,0.522-0.494,0.716,0.463,1.883c0.181,0.415,0.326,0.852-0.374,0.757
				h-0.139h0.139l-0.139-0.069c0.333-1.836-1.358-1.477-1.308-1.477c0.263-0.615-0.709-1.315-1.653-0.891
				c0.146-0.487-0.865-1.259-2.267-0.709c-0.21-0.497-1.47-1.013-2.658,0.506c-2.132,0.168-5.609,2.041-7.729,1.094l-1.362-3.527
				c2.46-0.237,8.02-0.617,9.978-1.451c1.575-1.005,4.465-1.508,5.158-1.134c-0.062,0.533-1.305,1.534-0.679,2.06
				c1.11,1.035,2.852,0.561,4.047-0.148c1.217,1.269,3.19,1.451,3.965,3.104l-0.225,0.562c-0.43,0.266-0.454,0.266-0.945-0.4
				c-1.17-1.579-2.283-1.217-2.471-2.301C24.605,51.875,24.902,52.33,24.902,52.586"/>
			<path fill="#F0BB81" d="M19.208,55.808c-0.44,0.179,0.191-0.272,0.337-0.387l0.19-0.23c0.363-0.352,0.878-0.801,1.21-0.082
				c0.195,0.427-1.26,1.246-1.508,1.329c-0.233,0.069-0.278,0.069-0.45-0.149C18.854,56.077,18.97,55.875,19.208,55.808"/>
			<path fill="#F0BB81" d="M17.926,55.646c-0.266,0.068-0.463,0.104-0.617-0.11c-0.106-0.266,0.337-0.772,0.52-0.965l0.342-0.225
				l0.271-0.252c0.544-0.066,0.487,0,0.592,0.252C19.151,54.583,18.171,55.625,17.926,55.646"/>
			<path fill="#F0BB81" d="M21.457,55.893c0,0,0.598-0.626,0.852,0.231c0.097,0.357-0.552,0.755-1.14,0.914
				C20.854,56.879,20.17,56.9,21.457,55.893"/>
			<path fill="#F0BB81" d="M16.457,54.659c-0.24,0.104-0.603-0.313-0.407-0.404l0.236-0.463c0.405-0.146,0.66-0.332,0.779-0.146
				C17.191,53.883,16.653,54.583,16.457,54.659"/>
			<path fill="#058BB9" d="M22.946,18.764c-9.726,0-17.633,10.283-18.005,23.186h35.981C40.548,29.047,32.652,18.764,22.946,18.764"
				/>
			<path fill="#1D1D1B" d="M23.946,47.217l0.018-10.206c0,0,3.501,0.069,4.266-0.063c0,0,1.275-0.488,1.479-1.61
				c0.131-0.752-0.465-3.039-0.558-3.453c0,0-0.619-0.464-0.688-0.971c0,0-0.339-3.849-1.141-4.968
				c-0.773-1.104-1.942-2.396-4.542-2.341c-2.616,0.022-3.853,1.743-4.038,2.908c-0.245,1.514,1.422,1.486,1.422,1.486
				s-0.71,0.616-0.958,0.924c-0.238,0.342-0.896,0.976-1.584,2.281c-0.697,1.319-1.14,3.38-0.885,4.098
				c0.3,0.689,1.523,1.535,2.933,1.71c1.399,0.138,2.326-0.083,2.326-0.083v10.174L23.946,47.217"/>
			<path fill="#D53316" d="M20.166,33.211c-1.024,0.029-1.452,0.58-2.359,0.61c0,0,0.21-1.91,2.075-4.153
				c0.756-0.856,2.571-1.845,3.482-2.272l-0.039-0.211c-0.82,0.12-2.97,0.53-3.566-0.421c-0.11-0.962,1.188-2.018,2.97-2.139
				c1.113-0.045,1.928,0.348,2.759,0.846c0.983,0.682,1.436,1.792,1.579,2.902c-1.229,0.551-1.546,0.789-1.665,0.863
				c0.177,0.017,0.467,0.078,0.815,0.088c0.46,0.007,0.721-0.059,0.922-0.088v0.682l0.209,0.276c-2.14,0.932-3.241,1.37-3.39,1.24
				c0,0,0.419,0.101,0.894,0.13c0.727,0.018,1.783-0.309,2.551-0.535c-0.015,0.405,0,0.755,0.631,1.01l0.017,0.04l-0.026,0.022
				c-2.191,1.182-3.038,1.063-3.199,0.948l-1.588-0.309c0.463,0.153,1.23,0.906,2.067,1.012c0.77,0.125,2.192-0.548,2.999-0.791
				l0.274,0.983c-1.319,0-2.745,1.914-4.753,1.214C22.805,34.399,21.571,33.211,20.166,33.211"/>
			<path fill="#D53316" d="M21.998,35.932c-1.011-0.017-2.561,0-2.615-0.074c-0.484-0.103-1.79-0.809-1.599-1.009
				c0.074-0.035,0.478,0.063,1.647-0.45C20.749,33.86,21.919,35.58,21.998,35.932"/>
			<path fill="#D53316" d="M28.763,34.912c-0.063,0.342-0.376,0.946-0.751,1.021c-0.271-0.031-1.542,0.027-2.271,0.027
				c0.535,0,0.822-0.172,1.167-0.331C29.003,34.583,28.763,34.912,28.763,34.912"/>
			<path fill="#FFFFFF" d="M21.851,72.598c0.124-0.337-0.057-0.783-0.057-0.783s-0.723,1.01-1.678,1.614
				c-0.862,0.508-2.353,0.845-2.599,0.896c0.18,0.212,0.396,0.408,0.62,0.581c0.261-0.04,1.376-0.143,2.476-0.844
				C21.329,73.644,21.851,72.598,21.851,72.598"/>
			<path fill="#058BB9" d="M24.114,72.598c-0.105-0.337,0.034-0.783,0.034-0.783s0.728,1.01,1.685,1.614
				c0.867,0.508,2.32,0.832,2.621,0.896c0.415-0.388,0.69-0.791,0.69-0.791s-1.342-0.168-2.633-0.57
				c-1.311-0.386-1.886-1.221-1.993-1.462c-0.116-0.253,0.107-0.819,0.308-0.993c0.188-0.175,2.359-0.326,2.286-2.162
				c-0.096-2.158-3.68-1.551-4.131-1.462c-0.446-0.089-4.042-0.696-4.117,1.462c-0.072,1.836,2.111,1.987,2.296,2.162
				c0.173,0.174,0.412,0.74,0.293,0.993c-0.12,0.241-0.674,1.076-1.975,1.462c-1.317,0.399-2.657,0.57-2.657,0.57
				s0.287,0.403,0.697,0.791c0.246-0.051,1.735-0.388,2.599-0.896c0.956-0.604,1.678-1.614,1.678-1.614s0.18,0.446,0.057,0.783
				c0,0-0.521,1.046-1.236,1.464c-1.1,0.701-2.215,0.801-2.476,0.844c0.337,0.238,0.716,0.432,1.066,0.419
				c2.265-0.084,3.128-2.606,3.128-2.606s0.281,0.206,0.642,0.245h0.023c0.366-0.039,0.63-0.245,0.63-0.245s0.888,2.524,3.145,2.606
				c0.35,0.013,0.709-0.177,1.042-0.419c-0.292-0.04-1.387-0.173-2.46-0.844C24.655,73.644,24.114,72.598,24.114,72.598"/>
			<path fill="#FFFFFF" d="M28.452,74.325c-0.301-0.063-1.755-0.39-2.616-0.896c-0.963-0.607-1.688-1.617-1.688-1.617
				s-0.138,0.447-0.034,0.785c0,0,0.541,1.044,1.241,1.465c1.073,0.668,2.168,0.801,2.458,0.842h0.014
				C28.049,74.73,28.277,74.534,28.452,74.325"/>
			<path fill="#FFFFFF" d="M21.297,67.575c0,0-0.585,0.452-0.645,0.958c-0.055,0.492,0.157,1.042,0.157,1.042
				s-1.188-0.399-1.144-1.178C19.736,67.254,21.297,67.575,21.297,67.575"/>
			<path fill="#FFFFFF" d="M24.686,67.575c0,0,0.561,0.452,0.617,0.958c0.077,0.492-0.125,1.042-0.125,1.042
				s1.192-0.399,1.129-1.178C26.223,67.254,24.686,67.575,24.686,67.575"/>
			<path fill="#FFFFFF" d="M23.071,67.986H22.89c-1.993-0.013-0.858,1.834-0.858,1.834s0.341-0.257,0.838-0.257h0.229
				c0.501,0.012,0.846,0.257,0.846,0.257S25.083,67.973,23.071,67.986"/>
			<path fill="#FFFFFF" d="M23.095,70.455h-0.207c-0.557,0-0.517,0.266-0.517,0.525c0,0.267,0.135,1.37,0.575,1.37h0.07
				c0.45,0,0.559-1.104,0.559-1.37C23.575,70.72,23.628,70.455,23.095,70.455"/>
		</g>
		<g>
			<path fill="#1C8FCD" d="M58.546,55.903h6.331c3.695,0,5.932,2.193,5.932,5.357v0.045c0,3.585-2.788,5.443-6.262,5.443h-2.591
				v4.648h-3.408V55.903H58.546z M64.653,63.719c1.707,0,2.701-1.021,2.701-2.348v-0.044c0-1.525-1.063-2.346-2.768-2.346h-2.634
				v4.737H64.653L64.653,63.719z"/>
			<path fill="#1C8FCD" d="M72.978,59.533h3.363v2.393c0.686-1.64,1.792-2.699,3.783-2.611v3.52h-0.176
				c-2.234,0-3.607,1.349-3.607,4.184v4.384h-3.363V59.533z"/>
			<path fill="#1C8FCD" d="M81.653,65.533v-0.041c0-3.39,2.411-6.178,5.865-6.178c3.962,0,5.777,3.076,5.777,6.44
				c0,0.266-0.023,0.576-0.046,0.887h-8.253c0.332,1.528,1.395,2.325,2.9,2.325c1.127,0,1.945-0.355,2.876-1.215l1.925,1.703
				c-1.108,1.37-2.699,2.212-4.848,2.212C84.288,71.665,81.653,69.163,81.653,65.533z M90.018,64.537
				c-0.197-1.507-1.084-2.522-2.5-2.522c-1.395,0-2.302,0.995-2.566,2.522H90.018z"/>
			<path fill="#1C8FCD" d="M94.863,69.828l1.439-2.214c1.285,0.929,2.633,1.416,3.741,1.416c0.974,0,1.416-0.354,1.416-0.886v-0.041
				c0-0.731-1.148-0.977-2.456-1.375c-1.66-0.486-3.541-1.262-3.541-3.563v-0.044c0-2.411,1.947-3.763,4.337-3.763
				c1.505,0,3.142,0.506,4.427,1.373l-1.285,2.326c-1.171-0.687-2.346-1.107-3.208-1.107c-0.819,0-1.24,0.354-1.24,0.819v0.043
				c0,0.665,1.129,0.974,2.414,1.416c1.659,0.554,3.586,1.349,3.586,3.522v0.041c0,2.633-1.97,3.829-4.537,3.829
				C98.297,71.619,96.437,71.068,94.863,69.828z"/>
			<path fill="#1C8FCD" d="M106.972,55.242h3.542v2.987h-3.542V55.242z M107.059,59.533h3.366v11.864h-3.366V59.533z"/>
			<path fill="#1C8FCD" d="M113.058,65.489v-0.044c0-3.963,2.589-6.131,5.4-6.131c1.792,0,2.9,0.816,3.694,1.77v-5.842h3.365v16.159
				h-3.365v-1.706c-0.818,1.107-1.946,1.924-3.694,1.924C115.691,71.619,113.058,69.451,113.058,65.489z M122.199,65.489v-0.044
				c0-1.969-1.305-3.275-2.876-3.275c-1.572,0-2.9,1.281-2.9,3.275v0.044c0,1.97,1.328,3.275,2.9,3.275
				C120.892,68.764,122.199,67.458,122.199,65.489z"/>
			<path fill="#1C8FCD" d="M127.952,65.533v-0.041c0-3.39,2.412-6.178,5.866-6.178c3.961,0,5.776,3.076,5.776,6.44
				c0,0.266-0.024,0.576-0.044,0.887h-8.256c0.331,1.528,1.395,2.325,2.899,2.325c1.128,0,1.946-0.355,2.876-1.215l1.925,1.703
				c-1.108,1.37-2.7,2.212-4.847,2.212C130.584,71.665,127.952,69.163,127.952,65.533z M136.316,64.537
				c-0.197-1.507-1.082-2.522-2.5-2.522c-1.394,0-2.302,0.995-2.568,2.522H136.316z"/>
			<path fill="#1C8FCD" d="M142.094,59.533h3.364v1.684c0.774-0.997,1.769-1.902,3.474-1.902c2.546,0,4.028,1.681,4.028,4.405v7.678
				h-3.364V64.78c0-1.595-0.752-2.411-2.035-2.411c-1.285,0-2.103,0.816-2.103,2.411v6.617h-3.364V59.533z"/>
			<path fill="#1C8FCD" d="M155.307,65.533v-0.041c0-3.39,2.589-6.178,6.219-6.178c2.235,0,3.629,0.754,4.735,1.991l-2.058,2.215
				c-0.753-0.797-1.507-1.307-2.701-1.307c-1.682,0-2.876,1.482-2.876,3.231v0.044c0,1.813,1.174,3.275,3.011,3.275
				c1.127,0,1.901-0.485,2.723-1.26l1.97,1.991c-1.152,1.259-2.48,2.169-4.849,2.169C157.918,71.665,155.307,68.919,155.307,65.533z
				"/>
			<path fill="#1C8FCD" d="M168.587,55.242h3.54v2.987h-3.54V55.242z M168.673,59.533h3.363v11.864h-3.363V59.533z"/>
			<path fill="#1C8FCD" d="M174.495,67.989v-0.044c0-2.589,1.969-3.785,4.782-3.785c1.194,0,2.055,0.199,2.896,0.487v-0.196
				c0-1.396-0.863-2.173-2.544-2.173c-1.283,0-2.19,0.245-3.275,0.642l-0.842-2.567c1.304-0.574,2.592-0.952,4.603-0.952
				c1.838,0,3.167,0.487,4.009,1.329c0.886,0.886,1.284,2.19,1.284,3.785v6.883h-3.253v-1.284c-0.823,0.908-1.949,1.506-3.586,1.506
				C176.33,71.619,174.495,70.333,174.495,67.989z M182.218,67.216v-0.598c-0.573-0.266-1.326-0.443-2.146-0.443
				c-1.44,0-2.323,0.576-2.323,1.64v0.043c0,0.909,0.753,1.439,1.836,1.439C181.155,69.296,182.218,68.432,182.218,67.216z"/>
			<path fill="#1C8FCD" d="M194.412,65.489v-0.044c0-3.963,2.592-6.131,5.4-6.131c1.793,0,2.899,0.816,3.698,1.77v-5.842h3.364
				v16.159h-3.364v-1.706c-0.819,1.107-1.949,1.924-3.698,1.924C197.048,71.619,194.412,69.451,194.412,65.489z M203.554,65.489
				v-0.044c0-1.969-1.307-3.275-2.875-3.275c-1.574,0-2.9,1.281-2.9,3.275v0.044c0,1.97,1.326,3.275,2.9,3.275
				C202.248,68.764,203.554,67.458,203.554,65.489z"/>
			<path fill="#1C8FCD" d="M209.308,65.533v-0.041c0-3.39,2.411-6.178,5.864-6.178c3.959,0,5.775,3.076,5.775,6.44
				c0,0.266-0.022,0.576-0.044,0.887h-8.257c0.332,1.528,1.396,2.325,2.898,2.325c1.13,0,1.948-0.355,2.877-1.215l1.926,1.703
				c-1.106,1.37-2.701,2.212-4.847,2.212C211.938,71.665,209.308,69.163,209.308,65.533z M217.672,64.537
				c-0.199-1.507-1.082-2.522-2.5-2.522c-1.395,0-2.301,0.995-2.566,2.522H217.672z"/>
			<path fill="#1C8FCD" d="M230.243,55.242h3.364v16.159h-3.364V55.242z"/>
			<path fill="#1C8FCD" d="M236.064,67.989v-0.044c0-2.589,1.972-3.785,4.777-3.785c1.196,0,2.061,0.199,2.902,0.487v-0.196
				c0-1.396-0.862-2.173-2.545-2.173c-1.285,0-2.193,0.245-3.275,0.642l-0.84-2.567c1.305-0.574,2.587-0.952,4.603-0.952
				c1.839,0,3.165,0.487,4.007,1.329c0.883,0.886,1.285,2.19,1.285,3.785v6.883h-3.257v-1.284c-0.818,0.908-1.946,1.506-3.586,1.506
				C237.901,71.619,236.064,70.333,236.064,67.989z M243.791,67.216v-0.598c-0.577-0.266-1.329-0.443-2.146-0.443
				c-1.441,0-2.327,0.576-2.327,1.64v0.043c0,0.909,0.751,1.439,1.837,1.439C242.724,69.296,243.791,68.432,243.791,67.216z"/>
			<path fill="#1C8FCD" d="M256.869,55.903h3.142l7.258,9.542v-9.542h3.364v15.498h-2.898l-7.504-9.853v9.853h-3.362L256.869,55.903
				L256.869,55.903z"/>
			<path fill="#1C8FCD" d="M273.292,67.989v-0.044c0-2.589,1.968-3.785,4.778-3.785c1.195,0,2.058,0.199,2.897,0.487v-0.196
				c0-1.396-0.862-2.173-2.543-2.173c-1.285,0-2.191,0.245-3.275,0.642l-0.842-2.567c1.304-0.574,2.589-0.952,4.604-0.952
				c1.837,0,3.165,0.487,4.005,1.329c0.887,0.886,1.285,2.19,1.285,3.785v6.883h-3.255v-1.284c-0.819,0.908-1.946,1.506-3.583,1.506
				C275.125,71.619,273.292,70.333,273.292,67.989z M281.014,67.216v-0.598c-0.576-0.266-1.329-0.443-2.147-0.443
				c-1.438,0-2.324,0.576-2.324,1.64v0.043c0,0.909,0.75,1.439,1.836,1.439C279.953,69.296,281.014,68.432,281.014,67.216z"/>
			<path fill="#1C8FCD" d="M286.524,65.533v-0.041c0-3.39,2.592-6.178,6.222-6.178c2.234,0,3.629,0.754,4.734,1.991l-2.059,2.215
				c-0.752-0.797-1.505-1.307-2.698-1.307c-1.684,0-2.876,1.482-2.876,3.231v0.044c0,1.813,1.172,3.275,3.008,3.275
				c1.131,0,1.906-0.485,2.724-1.26l1.968,1.991c-1.148,1.259-2.477,2.169-4.845,2.169
				C289.136,71.665,286.524,68.919,286.524,65.533z"/>
			<path fill="#1C8FCD" d="M299.801,55.242h3.543v2.987h-3.543V55.242z M299.892,59.533h3.362v11.864h-3.362V59.533z"/>
			<path fill="#1C8FCD" d="M305.844,65.533v-0.041c0-3.408,2.744-6.178,6.44-6.178c3.678,0,6.396,2.722,6.396,6.131v0.044
				c0,3.407-2.743,6.176-6.442,6.176C308.568,71.665,305.844,68.943,305.844,65.533z M315.364,65.533v-0.041
				c0-1.75-1.263-3.275-3.123-3.275c-1.925,0-3.073,1.481-3.073,3.229v0.046c0,1.744,1.26,3.275,3.119,3.275
				C314.212,68.764,315.364,67.283,315.364,65.533z M313.392,54.311l2.899,1.263l-2.877,2.655h-2.478L313.392,54.311z"/>
			<path fill="#1C8FCD" d="M321.115,59.533h3.363v1.684c0.775-0.997,1.772-1.902,3.476-1.902c2.544,0,4.028,1.681,4.028,4.405v7.678
				h-3.362V64.78c0-1.595-0.752-2.411-2.04-2.411c-1.281,0-2.102,0.816-2.102,2.411v6.617h-3.363V59.533L321.115,59.533z"/>
		</g>
		<g>
			<g>
				<path fill="#43B8EA" d="M57.782,37.406h2.163l2.399,3.858l2.396-3.858h2.165v9.126h-1.994v-5.958l-2.568,3.898h-0.052
					l-2.542-3.859v5.919h-1.967V37.406z"/>
				<path fill="#43B8EA" d="M68.667,37.016h2.084v1.759h-2.084V37.016z M68.719,39.545h1.979v6.988h-1.979V39.545z"/>
				<path fill="#43B8EA" d="M72.303,39.545h1.981v0.989c0.457-0.584,1.043-1.119,2.048-1.119c1.499,0,2.372,0.992,2.372,2.594v4.524
					h-1.981v-3.897c0-0.937-0.442-1.423-1.199-1.423c-0.755,0-1.238,0.486-1.238,1.423v3.897h-1.981v-6.988H72.303z"/>
				<path fill="#43B8EA" d="M80.204,37.016h2.087v1.759h-2.087V37.016z M80.254,39.545h1.983v6.988h-1.983V39.545z"/>
				<path fill="#43B8EA" d="M83.292,45.608l0.849-1.306c0.755,0.55,1.551,0.837,2.203,0.837c0.574,0,0.834-0.21,0.834-0.524V44.59
					c0-0.431-0.677-0.574-1.447-0.81c-0.979-0.285-2.086-0.742-2.086-2.099v-0.026c0-1.421,1.147-2.216,2.555-2.216
					c0.889,0,1.853,0.3,2.609,0.809l-0.757,1.369c-0.69-0.405-1.384-0.651-1.89-0.651c-0.482,0-0.73,0.207-0.73,0.482v0.026
					c0,0.391,0.665,0.572,1.422,0.835c0.977,0.323,2.111,0.793,2.111,2.071v0.027c0,1.551-1.158,2.256-2.672,2.256
					C85.311,46.664,84.219,46.337,83.292,45.608z"/>
				<path fill="#43B8EA" d="M90.449,44.551V41.24h-0.834v-1.694h0.834v-1.787h1.983v1.787h1.643v1.694h-1.643v2.982
					c0,0.459,0.195,0.68,0.639,0.68c0.365,0,0.691-0.092,0.977-0.246v1.592c-0.417,0.246-0.9,0.401-1.563,0.401
					C91.273,46.649,90.449,46.168,90.449,44.551z"/>
				<path fill="#43B8EA" d="M94.933,43.077v-0.025c0-1.996,1.421-3.639,3.455-3.639c2.334,0,3.403,1.812,3.403,3.793
					c0,0.157-0.011,0.339-0.026,0.522h-4.862c0.196,0.898,0.822,1.367,1.709,1.367c0.666,0,1.147-0.209,1.693-0.715l1.134,1.003
					c-0.649,0.809-1.589,1.304-2.854,1.304C96.485,46.69,94.933,45.215,94.933,43.077z M99.863,42.491
					c-0.118-0.886-0.64-1.485-1.475-1.485c-0.821,0-1.356,0.586-1.511,1.485H99.863z"/>
				<path fill="#43B8EA" d="M103.003,39.545h1.982v1.408c0.404-0.966,1.056-1.591,2.229-1.54v2.072h-0.104
					c-1.317,0-2.126,0.796-2.126,2.464v2.582h-1.982V39.545z"/>
				<path fill="#43B8EA" d="M108.231,37.016h2.085v1.759h-2.085V37.016z M108.283,39.545h1.981v6.988h-1.981V39.545z"/>
				<path fill="#43B8EA" d="M111.529,43.077v-0.025c0-2.009,1.617-3.639,3.793-3.639c2.164,0,3.769,1.604,3.769,3.611v0.027
					c0,2.006-1.617,3.636-3.795,3.636C113.13,46.69,111.529,45.083,111.529,43.077z M117.135,43.077v-0.025
					c0-1.032-0.742-1.932-1.84-1.932c-1.134,0-1.813,0.874-1.813,1.904v0.027c0,1.028,0.742,1.927,1.839,1.927
					C116.456,44.98,117.135,44.108,117.135,43.077z"/>
				<path fill="#43B8EA" d="M123.599,43.051v-0.025c0-2.333,1.527-3.612,3.181-3.612c1.056,0,1.708,0.482,2.179,1.044v-3.441h1.983
					v9.518h-1.983v-1.005c-0.483,0.655-1.147,1.136-2.179,1.136C125.15,46.664,123.599,45.385,123.599,43.051z M128.984,43.051
					v-0.025c0-1.162-0.77-1.93-1.694-1.93c-0.926,0-1.708,0.755-1.708,1.93v0.025c0,1.161,0.782,1.929,1.708,1.929
					C128.214,44.98,128.984,44.212,128.984,43.051z"/>
				<path fill="#43B8EA" d="M132.113,43.077v-0.025c0-1.996,1.42-3.639,3.455-3.639c2.333,0,3.402,1.812,3.402,3.793
					c0,0.157-0.013,0.339-0.027,0.522h-4.861c0.195,0.898,0.821,1.367,1.706,1.367c0.666,0,1.148-0.209,1.697-0.715l1.134,1.003
					c-0.653,0.809-1.59,1.304-2.856,1.304C133.662,46.69,132.113,45.215,132.113,43.077z M137.041,42.491
					c-0.117-0.886-0.641-1.485-1.473-1.485c-0.822,0-1.356,0.586-1.514,1.485H137.041z"/>
				<path fill="#43B8EA" d="M143.128,45.294l1.262-1.408c0.523,0.573,1.031,0.911,1.669,0.911c0.757,0,1.226-0.455,1.226-1.513
					v-5.881h2.061v5.972c0,1.081-0.314,1.891-0.862,2.438c-0.559,0.56-1.382,0.848-2.372,0.848
					C144.69,46.664,143.751,46.036,143.128,45.294z"/>
				<path fill="#43B8EA" d="M150.869,44.07v-4.524h1.983v3.897c0,0.938,0.442,1.422,1.198,1.422c0.757,0,1.24-0.483,1.24-1.422
					v-3.897h1.981v6.988h-1.981v-0.989c-0.455,0.586-1.044,1.12-2.049,1.12C151.744,46.664,150.869,45.671,150.869,44.07z"/>
				<path fill="#43B8EA" d="M158.236,45.608l0.848-1.306c0.755,0.55,1.549,0.837,2.199,0.837c0.575,0,0.837-0.21,0.837-0.524V44.59
					c0-0.431-0.679-0.574-1.448-0.81c-0.979-0.285-2.087-0.742-2.087-2.099v-0.026c0-1.421,1.149-2.216,2.555-2.216
					c0.887,0,1.854,0.3,2.609,0.809l-0.757,1.369c-0.691-0.405-1.384-0.651-1.893-0.651c-0.481,0-0.729,0.207-0.729,0.482v0.026
					c0,0.391,0.665,0.572,1.422,0.835c0.978,0.323,2.113,0.793,2.113,2.071v0.027c0,1.551-1.16,2.256-2.674,2.256
					C160.254,46.664,159.16,46.337,158.236,45.608z"/>
				<path fill="#43B8EA" d="M165.391,44.551V41.24h-0.834v-1.694h0.834v-1.787h1.981v1.787h1.646v1.694h-1.646v2.982
					c0,0.459,0.196,0.68,0.641,0.68c0.365,0,0.691-0.092,0.979-0.246v1.592c-0.418,0.246-0.903,0.401-1.563,0.401
					C166.213,46.649,165.391,46.168,165.391,44.551z"/>
				<path fill="#43B8EA" d="M170.253,37.016h2.086v1.759h-2.086V37.016z M170.306,39.545h1.98v6.988h-1.98V39.545z"/>
				<path fill="#43B8EA" d="M173.551,43.077v-0.025c0-1.996,1.527-3.639,3.666-3.639c1.317,0,2.137,0.442,2.788,1.173l-1.212,1.304
					c-0.442-0.469-0.886-0.77-1.589-0.77c-0.99,0-1.694,0.874-1.694,1.904v0.027c0,1.067,0.691,1.927,1.771,1.927
					c0.666,0,1.124-0.285,1.606-0.742l1.16,1.173c-0.681,0.743-1.459,1.278-2.856,1.278
					C175.089,46.69,173.551,45.073,173.551,43.077z"/>
				<path fill="#43B8EA" d="M181.114,37.016h2.087v1.759h-2.087V37.016z M181.165,39.545h1.98v6.988h-1.98V39.545z"/>
				<path fill="#43B8EA" d="M184.332,44.524v-0.025c0-1.523,1.162-2.229,2.817-2.229c0.702,0,1.212,0.117,1.705,0.286V42.44
					c0-0.822-0.506-1.279-1.5-1.279c-0.753,0-1.288,0.145-1.926,0.379l-0.498-1.514c0.771-0.338,1.523-0.56,2.712-0.56
					c1.084,0,1.864,0.286,2.361,0.78c0.519,0.521,0.756,1.292,0.756,2.229v4.055h-1.918v-0.755c-0.48,0.531-1.146,0.886-2.112,0.886
					C185.412,46.664,184.332,45.906,184.332,44.524z M188.881,44.07v-0.352c-0.337-0.158-0.78-0.263-1.265-0.263
					c-0.847,0-1.368,0.339-1.368,0.966v0.026c0,0.533,0.441,0.847,1.082,0.847C188.254,45.294,188.881,44.785,188.881,44.07z"/>
				<path fill="#43B8EA" d="M195.764,48.174l0.665-1.435c0.261,0.159,0.584,0.275,0.847,0.275c0.339,0,0.522-0.106,0.693-0.455
					l-2.738-7.015h2.099l1.59,4.759l1.524-4.759h2.059l-2.686,7.157c-0.535,1.421-1.107,1.956-2.294,1.956
					C196.807,48.659,196.273,48.475,195.764,48.174z"/>
				<path fill="#43B8EA" d="M207.276,37.406h3.556c2.869,0,4.851,1.97,4.851,4.537v0.025c0,2.57-1.981,4.563-4.851,4.563h-3.556
					V37.406z M210.833,44.718c1.643,0,2.75-1.107,2.75-2.725v-0.025c0-1.617-1.107-2.751-2.75-2.751h-1.551v5.501H210.833z"/>
				<path fill="#43B8EA" d="M216.66,43.077v-0.025c0-1.996,1.421-3.639,3.456-3.639c2.331,0,3.401,1.812,3.401,3.793
					c0,0.157-0.012,0.339-0.028,0.522h-4.86c0.196,0.898,0.822,1.367,1.709,1.367c0.664,0,1.146-0.209,1.692-0.715l1.135,1.003
					c-0.65,0.809-1.59,1.304-2.856,1.304C218.21,46.69,216.66,45.215,216.66,43.077z M221.587,42.491
					c-0.116-0.886-0.64-1.485-1.472-1.485c-0.823,0-1.357,0.586-1.513,1.485H221.587z"/>
				<path fill="#43B8EA" d="M224.73,39.545h1.98v1.408c0.405-0.966,1.054-1.591,2.229-1.54v2.072h-0.102
					c-1.316,0-2.127,0.796-2.127,2.464v2.582h-1.98V39.545z"/>
				<path fill="#43B8EA" d="M229.58,43.077v-0.025c0-1.996,1.419-3.639,3.454-3.639c2.333,0,3.405,1.812,3.405,3.793
					c0,0.157-0.016,0.339-0.028,0.522h-4.862c0.194,0.898,0.821,1.367,1.71,1.367c0.66,0,1.146-0.209,1.693-0.715l1.133,1.003
					c-0.651,0.809-1.589,1.304-2.856,1.304C231.13,46.69,229.58,45.215,229.58,43.077z M234.505,42.491
					c-0.115-0.886-0.64-1.485-1.472-1.485c-0.821,0-1.355,0.586-1.513,1.485H234.505z"/>
				<path fill="#43B8EA" d="M237.309,43.077v-0.025c0-1.996,1.525-3.639,3.665-3.639c1.316,0,2.136,0.442,2.79,1.173l-1.213,1.304
					c-0.441-0.469-0.886-0.77-1.59-0.77c-0.99,0-1.696,0.874-1.696,1.904v0.027c0,1.067,0.69,1.927,1.775,1.927
					c0.665,0,1.119-0.285,1.602-0.742l1.161,1.173c-0.677,0.743-1.46,1.278-2.854,1.278
					C238.847,46.69,237.309,45.073,237.309,43.077z"/>
				<path fill="#43B8EA" d="M244.831,37.016h1.982v3.519c0.457-0.584,1.044-1.119,2.048-1.119c1.497,0,2.37,0.992,2.37,2.594v4.524
					h-1.981v-3.897c0-0.937-0.442-1.423-1.199-1.423c-0.753,0-1.237,0.486-1.237,1.423v3.897h-1.982V37.016L244.831,37.016z"/>
				<path fill="#43B8EA" d="M252.353,43.077v-0.025c0-2.009,1.614-3.639,3.793-3.639c2.164,0,3.768,1.604,3.768,3.611v0.027
					c0,2.006-1.617,3.636-3.793,3.636C253.956,46.69,252.353,45.083,252.353,43.077z M257.959,43.077v-0.025
					c0-1.032-0.744-1.932-1.839-1.932c-1.135,0-1.812,0.874-1.812,1.904v0.027c0,1.028,0.743,1.927,1.837,1.927
					C257.281,44.98,257.959,44.108,257.959,43.077z"/>
				<path fill="#43B8EA" d="M260.539,45.608l0.848-1.306c0.757,0.55,1.551,0.837,2.203,0.837c0.572,0,0.835-0.21,0.835-0.524V44.59
					c0-0.431-0.679-0.574-1.449-0.81c-0.978-0.285-2.085-0.742-2.085-2.099v-0.026c0-1.421,1.148-2.216,2.557-2.216
					c0.883,0,1.852,0.3,2.606,0.809l-0.757,1.369c-0.691-0.405-1.385-0.651-1.891-0.651c-0.481,0-0.729,0.207-0.729,0.482v0.026
					c0,0.391,0.664,0.572,1.421,0.835c0.977,0.323,2.112,0.793,2.112,2.071v0.027c0,1.551-1.161,2.256-2.673,2.256
					C262.561,46.664,261.464,46.337,260.539,45.608z"/>
				<path fill="#43B8EA" d="M271.229,37.406h2.006v3.612h3.703v-3.612h2.007v9.126h-2.007v-3.664h-3.703v3.664h-2.006V37.406z"/>
				<path fill="#43B8EA" d="M280.614,44.07v-4.524h1.981v3.897c0,0.938,0.441,1.422,1.199,1.422c0.756,0,1.239-0.483,1.239-1.422
					v-3.897h1.98v6.988h-1.98v-0.989c-0.456,0.586-1.043,1.12-2.048,1.12C281.486,46.664,280.614,45.671,280.614,44.07z"/>
				<path fill="#43B8EA" d="M288.527,39.545h1.981v0.989c0.456-0.584,1.056-1.119,2.061-1.119c0.911,0,1.601,0.405,1.968,1.108
					c0.614-0.718,1.342-1.108,2.295-1.108c1.475,0,2.359,0.886,2.359,2.568v4.55h-1.983v-3.897c0-0.937-0.417-1.423-1.158-1.423
					c-0.743,0-1.199,0.486-1.199,1.423v3.897h-1.985v-3.897c0-0.937-0.415-1.423-1.158-1.423c-0.744,0-1.198,0.486-1.198,1.423
					v3.897h-1.982L288.527,39.545L288.527,39.545z"/>
				<path fill="#43B8EA" d="M300.234,44.524v-0.025c0-1.523,1.158-2.229,2.814-2.229c0.704,0,1.212,0.117,1.711,0.286V42.44
					c0-0.822-0.51-1.279-1.504-1.279c-0.756,0-1.288,0.145-1.927,0.379l-0.497-1.514c0.77-0.338,1.525-0.56,2.712-0.56
					c1.083,0,1.866,0.286,2.361,0.78c0.521,0.521,0.756,1.292,0.756,2.229v4.055h-1.917v-0.755
					c-0.483,0.531-1.147,0.886-2.114,0.886C301.316,46.664,300.234,45.906,300.234,44.524z M304.785,44.07v-0.352
					c-0.342-0.158-0.785-0.263-1.268-0.263c-0.844,0-1.367,0.339-1.367,0.966v0.026c0,0.533,0.441,0.847,1.08,0.847
					C304.158,45.294,304.785,44.785,304.785,44.07z"/>
				<path fill="#43B8EA" d="M308.107,39.545h1.981v0.989c0.456-0.584,1.044-1.119,2.048-1.119c1.498,0,2.373,0.992,2.373,2.594
					v4.524h-1.984v-3.897c0-0.937-0.441-1.423-1.199-1.423c-0.753,0-1.237,0.486-1.237,1.423v3.897h-1.981V39.545L308.107,39.545z"
					/>
				<path fill="#43B8EA" d="M315.626,43.077v-0.025c0-2.009,1.617-3.639,3.798-3.639c2.161,0,3.766,1.604,3.766,3.611v0.027
					c0,2.006-1.617,3.636-3.794,3.636C317.231,46.69,315.626,45.083,315.626,43.077z M321.235,43.077v-0.025
					c0-1.032-0.741-1.932-1.839-1.932c-1.137,0-1.813,0.874-1.813,1.904v0.027c0,1.028,0.743,1.927,1.842,1.927
					C320.557,44.98,321.235,44.108,321.235,43.077z"/>
				<path fill="#43B8EA" d="M323.814,45.608l0.845-1.306c0.757,0.55,1.553,0.837,2.204,0.837c0.574,0,0.836-0.21,0.836-0.524V44.59
					c0-0.431-0.679-0.574-1.448-0.81c-0.979-0.285-2.087-0.742-2.087-2.099v-0.026c0-1.421,1.148-2.216,2.556-2.216
					c0.888,0,1.853,0.3,2.607,0.809l-0.757,1.369c-0.692-0.405-1.383-0.651-1.892-0.651c-0.481,0-0.729,0.207-0.729,0.482v0.026
					c0,0.391,0.663,0.572,1.421,0.835c0.979,0.323,2.111,0.793,2.111,2.071v0.027c0,1.551-1.158,2.256-2.67,2.256
					C325.833,46.664,324.741,46.337,323.814,45.608z"/>
			</g>
		</g>
	</g>
	<g>
		<path fill="#009CCC" d="M58.282,28.994l0.516-0.609c0.764,0.693,1.499,1.04,2.519,1.04c0.985,0,1.637-0.525,1.637-1.249v-0.021
			c0-0.682-0.368-1.07-1.912-1.396c-1.688-0.368-2.465-0.912-2.465-2.121v-0.019c0-1.153,1.016-2.006,2.413-2.006
			c1.071,0,1.837,0.305,2.583,0.903l-0.482,0.642c-0.684-0.556-1.367-0.797-2.121-0.797c-0.955,0-1.563,0.523-1.563,1.187v0.021
			c0,0.694,0.377,1.083,1.995,1.427c1.636,0.357,2.393,0.955,2.393,2.08v0.021c0,1.26-1.048,2.078-2.509,2.078
			C60.12,30.169,59.164,29.781,58.282,28.994z"/>
		<path fill="#009CCC" d="M67.478,29.488c0.747,0,1.271-0.305,1.71-0.767l0.504,0.451c-0.544,0.607-1.208,1.018-2.236,1.018
			c-1.489,0-2.708-1.145-2.708-2.836c0-1.575,1.103-2.834,2.604-2.834c1.604,0,2.531,1.28,2.531,2.876c0,0.072,0,0.159-0.011,0.283
			h-4.306C65.683,28.827,66.523,29.488,67.478,29.488z M69.064,27.03c-0.094-0.985-0.663-1.825-1.731-1.825
			c-0.934,0-1.648,0.776-1.764,1.825H69.064z"/>
		<path fill="#009CCC" d="M70.699,27.378v-0.021c0-1.532,1.2-2.834,2.783-2.834c1.03,0,1.67,0.43,2.174,0.966l-0.535,0.565
			c-0.431-0.45-0.912-0.818-1.648-0.818c-1.101,0-1.942,0.937-1.942,2.1v0.021c0,1.177,0.86,2.109,1.995,2.109
			c0.693,0,1.227-0.345,1.658-0.809l0.513,0.483c-0.544,0.609-1.195,1.05-2.216,1.05C71.898,30.191,70.699,28.899,70.699,27.378z"/>
		<path fill="#009CCC" d="M76.769,24.636h0.807v1.418c0.4-0.902,1.186-1.553,2.215-1.511v0.871h-0.063
			c-1.186,0-2.154,0.849-2.154,2.488v2.161h-0.807v-5.427H76.769z"/>
		<path fill="#009CCC" d="M82.919,29.488c0.745,0,1.272-0.305,1.71-0.767l0.505,0.451c-0.546,0.607-1.209,1.018-2.236,1.018
			c-1.491,0-2.708-1.145-2.708-2.836c0-1.575,1.104-2.834,2.604-2.834c1.604,0,2.529,1.28,2.529,2.876c0,0.072,0,0.159-0.009,0.283
			h-4.303C81.125,28.827,81.965,29.488,82.919,29.488z M84.506,27.03c-0.097-0.985-0.662-1.825-1.732-1.825
			c-0.935,0-1.648,0.776-1.763,1.825H84.506z"/>
		<path fill="#009CCC" d="M86.763,28.625v-3.275h-0.756v-0.714h0.756v-1.638h0.807v1.638h1.723v0.714H87.57v3.171
			c0,0.661,0.37,0.902,0.914,0.902c0.272,0,0.504-0.054,0.787-0.189v0.693c-0.285,0.147-0.588,0.232-0.977,0.232
			C87.424,30.161,86.763,29.729,86.763,28.625z"/>
		<path fill="#009CCC" d="M90.047,28.49v-0.021c0-1.163,0.944-1.774,2.32-1.774c0.694,0,1.177,0.094,1.658,0.232v-0.169
			c0-0.966-0.586-1.469-1.605-1.469c-0.642,0-1.144,0.158-1.648,0.389l-0.241-0.661c0.599-0.273,1.174-0.462,1.973-0.462
			c0.765,0,1.362,0.21,1.751,0.598c0.377,0.377,0.569,0.902,0.569,1.596v3.316h-0.799v-0.808c-0.376,0.482-0.996,0.925-1.953,0.925
			C91.055,30.181,90.047,29.602,90.047,28.49z M94.035,28.07v-0.504c-0.398-0.114-0.923-0.23-1.586-0.23
			c-1.005,0-1.584,0.441-1.584,1.091v0.022c0,0.681,0.63,1.081,1.364,1.081C93.229,29.528,94.035,28.931,94.035,28.07z"/>
		<path fill="#009CCC" d="M96.273,24.636h0.81v1.418c0.397-0.902,1.185-1.553,2.215-1.511v0.871h-0.065
			c-1.186,0-2.15,0.849-2.15,2.488v2.161h-0.81V24.636z"/>
		<path fill="#009CCC" d="M100.335,24.636h0.807v5.427h-0.807V24.636z M101.405,22.297l0.841,0.387l-1.196,1.134h-0.63
			L101.405,22.297z"/>
		<path fill="#009CCC" d="M102.351,28.49v-0.021c0-1.163,0.944-1.774,2.318-1.774c0.693,0,1.176,0.094,1.658,0.232v-0.169
			c0-0.966-0.589-1.469-1.606-1.469c-0.64,0-1.144,0.158-1.648,0.389l-0.241-0.661c0.599-0.273,1.176-0.462,1.972-0.462
			c0.768,0,1.365,0.21,1.753,0.598c0.378,0.377,0.568,0.902,0.568,1.596v3.316h-0.798v-0.808c-0.379,0.482-0.997,0.925-1.954,0.925
			C103.359,30.181,102.351,29.602,102.351,28.49z M106.34,28.07v-0.504c-0.4-0.114-0.924-0.23-1.587-0.23
			c-1.008,0-1.586,0.441-1.586,1.091v0.022c0,0.681,0.631,1.081,1.365,1.081C105.532,29.528,106.34,28.931,106.34,28.07z"/>
		<path fill="#009CCC" d="M111.146,27.367v-0.021c0-1.774,1.29-2.824,2.592-2.824c1.01,0,1.659,0.546,2.078,1.153V22.4h0.811v7.663
			h-0.811v-1.091c-0.44,0.651-1.079,1.209-2.078,1.209C112.436,30.181,111.146,29.151,111.146,27.367z M115.848,27.357v-0.021
			c0-1.249-0.955-2.09-1.96-2.09c-1.051,0-1.913,0.776-1.913,2.09v0.021c0,1.28,0.882,2.1,1.913,2.1
			C114.893,29.456,115.848,28.606,115.848,27.357z"/>
		<path fill="#009CCC" d="M120.561,29.488c0.744,0,1.271-0.305,1.713-0.767l0.504,0.451c-0.547,0.607-1.208,1.018-2.235,1.018
			c-1.49,0-2.71-1.145-2.71-2.836c0-1.575,1.104-2.834,2.606-2.834c1.604,0,2.527,1.28,2.527,2.876c0,0.072,0,0.159-0.009,0.283
			h-4.303C118.766,28.827,119.607,29.488,120.561,29.488z M122.146,27.03c-0.094-0.985-0.66-1.825-1.731-1.825
			c-0.934,0-1.648,0.776-1.762,1.825H122.146z"/>
		<path fill="#009CCC" d="M127.145,22.716h2.551c2.309,0,3.905,1.586,3.905,3.653v0.021c0,2.068-1.597,3.673-3.905,3.673h-2.551
			V22.716z M129.696,29.298c1.856,0,3.044-1.261,3.044-2.886V26.39c0-1.627-1.186-2.907-3.044-2.907h-1.723v5.815H129.696z"/>
		<path fill="#009CCC" d="M137.347,29.488c0.747,0,1.27-0.305,1.712-0.767l0.504,0.451c-0.546,0.607-1.207,1.018-2.235,1.018
			c-1.492,0-2.709-1.145-2.709-2.836c0-1.575,1.101-2.834,2.604-2.834c1.605,0,2.531,1.28,2.531,2.876c0,0.072,0,0.159-0.013,0.283
			h-4.303C135.551,28.827,136.39,29.488,137.347,29.488z M138.932,27.03c-0.093-0.985-0.662-1.825-1.731-1.825
			c-0.936,0-1.649,0.776-1.763,1.825H138.932z"/>
		<path fill="#009CCC" d="M140.907,24.636h0.807v1.418c0.4-0.902,1.187-1.553,2.215-1.511v0.871h-0.062
			c-1.186,0-2.153,0.849-2.153,2.488v2.161h-0.807V24.636z"/>
		<path fill="#009CCC" d="M147.057,29.488c0.745,0,1.27-0.305,1.71-0.767l0.506,0.451c-0.546,0.607-1.206,1.018-2.236,1.018
			c-1.491,0-2.71-1.145-2.71-2.836c0-1.575,1.103-2.834,2.604-2.834c1.606,0,2.531,1.28,2.531,2.876c0,0.072,0,0.159-0.011,0.283
			h-4.305C145.262,28.827,146.103,29.488,147.057,29.488z M148.64,27.03c-0.094-0.985-0.657-1.825-1.729-1.825
			c-0.936,0-1.649,0.776-1.766,1.825H148.64z"/>
		<path fill="#009CCC" d="M150.281,27.378v-0.021c0-1.532,1.195-2.834,2.781-2.834c1.029,0,1.669,0.43,2.173,0.966l-0.534,0.565
			c-0.431-0.45-0.912-0.818-1.647-0.818c-1.105,0-1.943,0.937-1.943,2.1v0.021c0,1.177,0.86,2.109,1.993,2.109
			c0.695,0,1.229-0.345,1.657-0.809l0.514,0.483c-0.545,0.609-1.194,1.05-2.213,1.05C151.476,30.191,150.281,28.899,150.281,27.378z
			"/>
		<path fill="#009CCC" d="M156.348,22.4h0.809v3.181c0.355-0.588,0.923-1.06,1.856-1.06c1.314,0,2.079,0.881,2.079,2.172v3.369
			h-0.809v-3.169c0-1.008-0.546-1.638-1.5-1.638c-0.934,0-1.627,0.682-1.627,1.7v3.105h-0.809V22.4z"/>
		<path fill="#009CCC" d="M162.213,27.378v-0.021c0-1.532,1.196-2.834,2.834-2.834c1.629,0,2.826,1.28,2.826,2.813v0.021
			c0,1.532-1.209,2.836-2.847,2.836C163.4,30.191,162.213,28.91,162.213,27.378z M167.043,27.378v-0.021
			c0-1.165-0.871-2.121-2.017-2.121c-1.176,0-1.984,0.956-1.984,2.1v0.021c0,1.165,0.861,2.109,2.004,2.109
			C166.224,29.464,167.043,28.522,167.043,27.378z"/>
		<path fill="#009CCC" d="M168.62,29.371l0.408-0.577c0.585,0.441,1.24,0.694,1.878,0.694c0.65,0,1.122-0.337,1.122-0.862v-0.02
			c0-0.546-0.641-0.756-1.354-0.955c-0.85-0.241-1.795-0.535-1.795-1.534v-0.021c0-0.935,0.779-1.554,1.849-1.554
			c0.66,0,1.397,0.231,1.952,0.597l-0.367,0.609c-0.506-0.325-1.082-0.524-1.605-0.524c-0.641,0-1.049,0.337-1.049,0.787v0.021
			c0,0.515,0.669,0.712,1.396,0.933c0.838,0.253,1.743,0.576,1.743,1.554v0.021c0,1.028-0.851,1.627-1.934,1.627
			C170.087,30.169,169.227,29.865,168.62,29.371z"/>
		<path fill="#009CCC" d="M177.056,22.716h0.829v3.265h4.242v-3.265h0.831v7.348h-0.831v-3.307h-4.242v3.307h-0.829V22.716z"/>
		<path fill="#009CCC" d="M184.553,28.006v-3.37h0.806v3.171c0,1.01,0.548,1.639,1.502,1.639c0.924,0,1.63-0.683,1.63-1.7v-3.108
			h0.796v5.426h-0.796V29.12c-0.369,0.588-0.925,1.062-1.858,1.062C185.32,30.181,184.553,29.298,184.553,28.006z"/>
		<path fill="#009CCC" d="M190.838,24.636h0.811v0.912c0.354-0.534,0.839-1.027,1.75-1.027c0.883,0,1.449,0.472,1.744,1.081
			c0.389-0.598,0.965-1.081,1.911-1.081c1.25,0,2.015,0.839,2.015,2.183v3.358h-0.806v-3.169c0-1.05-0.528-1.638-1.41-1.638
			c-0.816,0-1.5,0.609-1.5,1.679v3.128h-0.799v-3.191c0-1.018-0.533-1.616-1.393-1.616c-0.864,0-1.513,0.714-1.513,1.71v3.097
			h-0.811V24.636z"/>
		<path fill="#009CCC" d="M200.149,28.49v-0.021c0-1.163,0.946-1.774,2.323-1.774c0.693,0,1.174,0.094,1.657,0.232v-0.169
			c0-0.966-0.589-1.469-1.606-1.469c-0.643,0-1.146,0.158-1.649,0.389l-0.243-0.661c0.6-0.273,1.181-0.462,1.978-0.462
			c0.768,0,1.364,0.21,1.754,0.598c0.376,0.377,0.567,0.902,0.567,1.596v3.316h-0.799v-0.808c-0.377,0.482-0.997,0.925-1.952,0.925
			C201.159,30.181,200.149,29.602,200.149,28.49z M204.14,28.07v-0.504c-0.4-0.114-0.924-0.23-1.586-0.23
			c-1.006,0-1.585,0.441-1.585,1.091v0.022c0,0.681,0.63,1.081,1.367,1.081C203.33,29.528,204.14,28.931,204.14,28.07z"/>
		<path fill="#009CCC" d="M206.375,24.636h0.808v0.945c0.359-0.588,0.926-1.06,1.855-1.06c1.315,0,2.083,0.881,2.083,2.172v3.369
			h-0.811v-3.169c0-1.008-0.544-1.638-1.502-1.638c-0.935,0-1.628,0.682-1.628,1.7v3.105h-0.807L206.375,24.636L206.375,24.636z"/>
		<path fill="#009CCC" d="M212.244,27.378v-0.021c0-1.532,1.196-2.834,2.834-2.834c1.626,0,2.822,1.28,2.822,2.813v0.021
			c0,1.532-1.205,2.836-2.843,2.836C213.425,30.191,212.244,28.91,212.244,27.378z M217.068,27.378v-0.021
			c0-1.165-0.867-2.121-2.011-2.121c-1.18,0-1.986,0.956-1.986,2.1v0.021c0,1.165,0.86,2.109,2.005,2.109
			C216.254,29.464,217.068,28.522,217.068,27.378z"/>
		<path fill="#009CCC" d="M218.647,29.371l0.408-0.577c0.586,0.441,1.24,0.694,1.88,0.694c0.648,0,1.124-0.337,1.124-0.862v-0.02
			c0-0.546-0.643-0.756-1.354-0.955c-0.852-0.241-1.795-0.535-1.795-1.534v-0.021c0-0.935,0.775-1.554,1.847-1.554
			c0.661,0,1.396,0.231,1.952,0.597l-0.368,0.609c-0.505-0.325-1.082-0.524-1.606-0.524c-0.638,0-1.049,0.337-1.049,0.787v0.021
			c0,0.515,0.674,0.712,1.396,0.933c0.842,0.253,1.745,0.576,1.745,1.554v0.021c0,1.028-0.853,1.627-1.934,1.627
			C220.116,30.169,219.254,29.865,218.647,29.371z"/>
		<path fill="#009CCC" d="M226.635,31.502l0.271-0.641c0.263,0.136,0.505,0.199,0.85,0.199c0.484,0,0.787-0.253,1.116-1.02
			l-2.471-5.405h0.895l1.975,4.523l1.742-4.523h0.86l-2.276,5.606c-0.462,1.123-0.987,1.533-1.804,1.533
			C227.337,31.776,227.001,31.681,226.635,31.502z"/>
		<path fill="#009CCC" d="M235.914,22.716h2.75c1.658,0,2.747,0.882,2.747,2.33v0.021c0,1.584-1.319,2.403-2.883,2.403h-1.786v2.593
			h-0.831v-7.347H235.914z M238.558,26.717c1.218,0,2.014-0.651,2.014-1.617v-0.021c0-1.048-0.786-1.594-1.971-1.594h-1.858v3.234
			h1.815V26.717z"/>
		<path fill="#009CCC" d="M242.597,22.4h0.811v7.663h-0.811V22.4z"/>
		<path fill="#009CCC" d="M244.94,28.006v-3.37h0.81v3.171c0,1.01,0.545,1.639,1.504,1.639c0.921,0,1.626-0.683,1.626-1.7v-3.108
			h0.795v5.426h-0.795V29.12c-0.37,0.588-0.926,1.062-1.859,1.062C245.708,30.181,244.94,29.298,244.94,28.006z"/>
		<path fill="#009CCC" d="M251.228,24.636h0.81v1.418c0.396-0.902,1.184-1.553,2.213-1.511v0.871h-0.063
			c-1.184,0-2.149,0.849-2.149,2.488v2.161h-0.81V24.636L251.228,24.636z"/>
		<path fill="#009CCC" d="M254.544,28.49v-0.021c0-1.163,0.946-1.774,2.323-1.774c0.692,0,1.174,0.094,1.655,0.232v-0.169
			c0-0.966-0.586-1.469-1.604-1.469c-0.64,0-1.145,0.158-1.649,0.389l-0.24-0.661c0.595-0.273,1.176-0.462,1.973-0.462
			c0.768,0,1.366,0.21,1.754,0.598c0.378,0.377,0.567,0.902,0.567,1.596v3.316h-0.797v-0.808c-0.377,0.482-0.997,0.925-1.953,0.925
			C255.554,30.181,254.544,29.602,254.544,28.49z M258.536,28.07v-0.504c-0.399-0.114-0.926-0.23-1.586-0.23
			c-1.01,0-1.587,0.441-1.587,1.091v0.022c0,0.681,0.631,1.081,1.367,1.081C257.727,29.528,258.536,28.931,258.536,28.07z"/>
		<path fill="#009CCC" d="M260.844,22.4h0.809v7.663h-0.809V22.4z"/>
		<path fill="#009CCC" d="M263.291,22.559h0.922v0.891h-0.922V22.559z M263.342,24.636h0.809v5.427h-0.809V24.636z"/>
		<path fill="#009CCC" d="M265.317,29.371l0.408-0.577c0.587,0.441,1.241,0.694,1.88,0.694c0.65,0,1.12-0.337,1.12-0.862v-0.02
			c0-0.546-0.639-0.756-1.354-0.955c-0.848-0.241-1.792-0.535-1.792-1.534v-0.021c0-0.935,0.776-1.554,1.85-1.554
			c0.661,0,1.394,0.231,1.952,0.597l-0.37,0.609c-0.503-0.325-1.081-0.524-1.606-0.524c-0.641,0-1.049,0.337-1.049,0.787v0.021
			c0,0.515,0.671,0.712,1.396,0.933c0.842,0.253,1.742,0.576,1.742,1.554v0.021c0,1.028-0.85,1.627-1.929,1.627
			C266.784,30.169,265.924,29.865,265.317,29.371z"/>
		<path fill="#009CCC" d="M270.732,24.636h0.811v0.912c0.354-0.534,0.838-1.027,1.753-1.027c0.88,0,1.448,0.472,1.74,1.081
			c0.39-0.598,0.969-1.081,1.912-1.081c1.248,0,2.016,0.839,2.016,2.183v3.358h-0.807v-3.169c0-1.05-0.529-1.638-1.408-1.638
			c-0.82,0-1.501,0.609-1.501,1.679v3.128h-0.8v-3.191c0-1.018-0.535-1.616-1.395-1.616c-0.86,0-1.511,0.714-1.511,1.71v3.097
			h-0.811V24.636L270.732,24.636z"/>
		<path fill="#009CCC" d="M280.119,27.378v-0.021c0-1.532,1.194-2.834,2.832-2.834c1.627,0,2.823,1.28,2.823,2.813v0.021
			c0,1.532-1.206,2.836-2.845,2.836C281.302,30.191,280.119,28.91,280.119,27.378z M284.945,27.378v-0.021
			c0-1.165-0.872-2.121-2.016-2.121c-1.175,0-1.984,0.956-1.984,2.1v0.021c0,1.165,0.86,2.109,2.006,2.109
			C284.125,29.464,284.945,28.522,284.945,27.378z"/>
		<path fill="#009CCC" d="M289.668,26.413V26.39c0-2.079,1.555-3.799,3.717-3.799c1.332,0,2.13,0.473,2.867,1.165l-0.57,0.607
			c-0.616-0.586-1.31-1.008-2.309-1.008c-1.628,0-2.843,1.323-2.843,3.013v0.021c0,1.7,1.228,3.036,2.843,3.036
			c1.01,0,1.67-0.388,2.376-1.062l0.544,0.536c-0.77,0.776-1.604,1.292-2.94,1.292C291.235,30.191,289.668,28.522,289.668,26.413z"
			/>
		<path fill="#009CCC" d="M297.258,28.006v-3.37h0.811v3.171c0,1.01,0.544,1.639,1.5,1.639c0.923,0,1.627-0.683,1.627-1.7v-3.108
			h0.797v5.426h-0.797V29.12c-0.37,0.588-0.923,1.062-1.858,1.062C298.025,30.181,297.258,29.298,297.258,28.006z"/>
		<path fill="#009CCC" d="M303.617,22.4h0.81v7.663h-0.81V22.4z"/>
		<path fill="#009CCC" d="M306.326,28.625v-3.275h-0.753v-0.714h0.753v-1.638h0.81v1.638h1.722v0.714h-1.722v3.171
			c0,0.661,0.369,0.902,0.912,0.902c0.273,0,0.506-0.054,0.786-0.189v0.693c-0.283,0.147-0.585,0.232-0.977,0.232
			C306.99,30.161,306.326,29.729,306.326,28.625z"/>
		<path fill="#009CCC" d="M309.938,28.006v-3.37h0.807v3.171c0,1.01,0.548,1.639,1.502,1.639c0.924,0,1.63-0.683,1.63-1.7v-3.108
			h0.798v5.426h-0.798V29.12c-0.368,0.588-0.924,1.062-1.857,1.062C310.706,30.181,309.938,29.298,309.938,28.006z"/>
		<path fill="#009CCC" d="M316.228,24.636h0.807v1.418c0.399-0.902,1.188-1.553,2.216-1.511v0.871h-0.063
			c-1.187,0-2.152,0.849-2.152,2.488v2.161h-0.807V24.636z"/>
		<path fill="#009CCC" d="M319.542,28.49v-0.021c0-1.163,0.946-1.774,2.323-1.774c0.694,0,1.176,0.094,1.658,0.232v-0.169
			c0-0.966-0.589-1.469-1.608-1.469c-0.641,0-1.142,0.158-1.648,0.389l-0.237-0.661c0.598-0.273,1.174-0.462,1.973-0.462
			c0.767,0,1.364,0.21,1.754,0.598c0.375,0.377,0.566,0.902,0.566,1.596v3.316h-0.796v-0.808c-0.378,0.482-1,0.925-1.953,0.925
			C320.551,30.181,319.542,29.602,319.542,28.49z M323.532,28.07v-0.504c-0.398-0.114-0.924-0.23-1.587-0.23
			c-1.005,0-1.584,0.441-1.584,1.091v0.022c0,0.681,0.63,1.081,1.364,1.081C322.725,29.528,323.532,28.931,323.532,28.07z"/>
		<path fill="#009CCC" d="M325.839,22.4h0.811v7.663h-0.811V22.4z"/>
	</g>
</g>
</svg>
